<?xml version="1.0"?>
<svg xmlns:rdf="http://www.w3.org/1999/02/22-rdf-syntax-ns#" xmlns="http://www.w3.org/2000/svg" xmlns:cc="http://web.resource.org/cc/" xmlns:xlink="http://www.w3.org/1999/xlink" xmlns:dc="http://purl.org/dc/elements/1.1/" xmlns:svg="http://www.w3.org/2000/svg" id="Layer_1" xml:space="preserve" overflow="visible" viewBox="0 0 192.316 177.025" version="1.1" enable-background="new 0 0 192.316 177.025">
			<polyline points="26.456 155.18 28.907 152.49 32.688 150.08 35.805 149.52 38.086 153 34.388 156.03 32.972 159.15 29.005 161.7 25.323 160.85 24.188 159.43 25.039 155.47 26.456 155.18" fill="#fff"/>
			<path d="m56.447 102.34l1.529-2.976 5.312-2.338 5.102 0.213 3.399 1.275 0.637 2.125 3.4 17 11.263 30.6 6.801 5.525 5.101 1.062 3.824 1.701 3.611 1.572-0.34 1.188-0.935 1.7-5.737-1.274s4.675 5.312 5.312 5.312c0.639 0-0.638 2.976-0.638 2.976l-2.338-0.639 0.255 2.295-1.104 0.043-9.138-4.888 2.125 4.675-0.426 2.125h-1.274l-2.764-2.762-2.039-3.613-2.848-1.062-4.675-2.976-1.063-4.462-0.212-2.55-7.438-6.588s-9.563-19.125-8.926-20.612c0.639-1.488-1.274-9.138-1.274-9.138l-2.764-4.676-1.274-12.536" fill="#FCC7AC"/>
			<polyline points="186.33 135.15 189.09 138.18 187.96 142.15 186.54 143.85 183.27 144.33 182.86 142.43 183.1 140.76 183.99 139.88 183.71 137.9 186.33 135.15" fill="#C8C7B3"/>
			<polyline points="9.739 161.7 17.346 162.35 23.906 165.95 33.497 169.66 38.426 170.51 39.489 165.38 43.456 160.85 47.138 160.57 50.823 162.83 51.956 168.5 50.255 173.03 45.438 175.3 39.206 176.72 32.688 175.58 26.739 173.6 20.407 171.87 15.406 170.48 11.156 168.78 9.456 166.8 9.739 161.7" fill="#fff"/>
			<polyline points="46.289 131.67 50.539 136.2 52.027 142.29 51.956 146.68 47.706 150.93 47.436 143.82 45.722 138.75 43.739 137.05 45.156 133.65" fill="#fff"/>
						<polyline points="159.34 123.17 164.72 122.03 169.26 124.02 172.09 126.28 176.47 126.82 181.57 128.52 185.69 134.22 185.48 137.19 183.71 137.9 183.1 140.76 183.27 144.33 180.87 144.13 178.04 141.02 172.37 141.3 170.67 144.13 169.82 146.68 163.87 148.1 161.04 147.82 159.34 123.17" fill="#2E3192"/>
						<polyline points="44.716 136.17 47.422 140.17 48.626 146.03 47.138 153.2 42.039 156.88 39.489 154.9 42.323 150.08 41.472 146.12 41.657 143.14 43.739 136.2" fill="#C8C7B3"/>
						<polyline points="13.209 150.84 18.805 154.33 26.867 153.51 31.838 150.93 35.805 149.52 27.588 144.98 21.073 146.4 13.706 150.08 17.105 153.2" fill="#C6161D"/>
						<polyline points="78.873 121.47 84.255 120.9 92.755 126.57 95.589 132.8 96.439 141.02 93.889 144.42 90.206 148.1 88.577 148.41 86.805 146.12 78.022 121.47" fill="#29A6D1"/>
						<path d="m36.088 84.703s-3.115 5.597-0.565 7.579c2.551 1.983 5.794 1.049 5.794 1.049l9.689-0.681s-0.468 12.666 4.634 13.231c5.1 0.566 0.851-0.282 0.851-0.282s2.762 11.687 4.462 12.254c1.7 0.566 0.921 10.13 1.487 10.979 0.565 0.852 7.648 22.385 13.315 23.519s1.135 1.417 1.135 1.417h-9.066l-1.687-1.275-21.421 7.48-1.869-3.4 4.292-3.372 2.268-4.533 1.982-8.782-0.851-3.685-4.25-4.533-4.25 9.067-0.283 10.74-2.55 1.7-7.083-7.083s-13.884-1.133-19.268 3.117l-4.25 7.933-4.533-3.97 1.035-4.448 4.42-12.068-4.038-2.749s-5.384-8.783-4.533-10.2c0.851-1.416-0.704-11.497 7.083-16.15 1.091-0.649 6.518-3.683 10.482-8.5 3.968-4.815 11.617-12.467 11.617-12.467l2.268-2.549 3.683 0.639" fill="#29A6D1"/>
						<path d="m69.07 58.948l6.757 4.717 1.062 9.352-1.487 8.713 0.425 7.861 1.274 4.676-2.976 5.524s-11.899-9.138-18.7 3.612l0.426 1.488-1.699-0.214s-4.804-6.631-2.935-12.239-17.467 6.078-15.13-7.735l4.889-2.55 6.162-9.351 8.074-9.139 6.802-4.25 7.056-0.468" fill="#FFF3E1"/>
						<path d="m52.477 100.93c1.688-1.555 2.829-3.44 4.849-4.81 1.926-1.313 3.892-1.991 6.123-2.271 0.61-0.067 1.209 0.065 1.806-0.054 3.479-0.73 7.479-0.519 9.854 2.179 0.491 0.505 1.303 0.505 1.807 0.013 0.492-0.491 0.492-1.302 0-1.806-1.74-2.205-4.595-3.017-7.277-3.241-2.803-0.252-5.473 0.213-8.313 0.757-4.529 0.864-7.93 3.893-10.492 7.464-0.04-0.024-0.066-0.064-0.106-0.093-0.504 0.492-0.531 1.289-0.054 1.807 0.49 0.5 1.286 0.53 1.803 0.05" fill="#C6161D"/>
						<path d="m52.477 91.742c4.196-2.895 9.271-3.971 14.277-4.409 2.604-0.226 5.193 0.504 7.531 1.594 0.689 0.146 1.354-0.306 1.5-0.995 0.133-0.69-0.305-1.368-0.996-1.5-3.758-1.993-8.021-1.979-12.231-1.145-4.156 0.824-8.021 1.886-11.408 4.277-0.599 0.372-0.797 1.154-0.426 1.753 0.372 0.598 1.156 0.797 1.753 0.425" fill="#C6161D"/>
						<path d="m53.593 83.747c6.375-3.135 14.41-4.582 20.72-0.492 0.638 0.293 1.396 0 1.688-0.637 0.292-0.638 0-1.395-0.639-1.687-6.918-4.356-15.777-3.041-22.776 0.478-0.65 0.279-0.942 1.023-0.664 1.674s1.021 0.943 1.671 0.664" fill="#C6161D"/>
						<path d="m56.118 76.349c2.43-1.235 4.769-2.776 7.557-3.081 3.879-0.426 7.545 0.836 10.983 2.403-0.039 0.039-0.066 0.094-0.106 0.134 0.466 0.53 1.275 0.584 1.794 0.118 0.53-0.466 0.585-1.274 0.118-1.793-1.766-1.819-4.355-2.219-6.706-2.936-5.246-1.594-10.586 0.065-15.021 3.001-0.584 0.372-0.758 1.156-0.386 1.754 0.371 0.598 1.168 0.772 1.767 0.4" fill="#C6161D"/>
						<path d="m58.892 67.663c1.768-0.862 3.388-2.138 5.419-2.059 3.76 0.16 7.649 1.209 10.413 3.918 0.57 0.397 1.367 0.266 1.779-0.306 0.397-0.57 0.266-1.367-0.306-1.779-2.432-2.497-5.672-3.4-9.071-4.184-3.493-0.812-6.642 0.41-9.482 2.19-0.61 0.345-0.823 1.116-0.479 1.74 0.346 0.612 1.118 0.825 1.727 0.48" fill="#C6161D"/>
						<path d="m37.497 84.756c-0.836 4.648 2.457 7.623 6.242 9.51 0.638 0.277 1.833-0.199 2.125-0.852 0.293-0.637 0.278-0.41-0.371-0.688-2.737-1.396-5.938-4.038-5.499-7.438 0.146-0.688-0.292-1.368-0.982-1.514-0.691-0.147-1.37 0.292-1.515 0.982" fill="#C6161D"/>
						<path d="m42.516 79.231c-1.234 4.994 3.839 8.58 7.876 10.188 0.639 0.318 1.396 0.065 1.715-0.57 0.316-0.624 0.064-1.396-0.571-1.714-2.909-1.303-7.119-3.413-6.575-7.158 0.2-0.664-0.172-1.381-0.85-1.595-0.664-0.2-1.382 0.172-1.595 0.849" fill="#C6161D"/>
						<path d="m46.806 72.377c-2.551 4.17 1.913 7.995 5.604 9.218 0.638 0.307 1.396 0.026 1.699-0.61 0.293-0.637 0.027-1.395-0.61-1.7-1.779-0.783-3.586-1.634-4.715-3.359-0.611-0.931-0.04-1.767 0.385-2.591 0.267-0.649-0.039-1.394-0.703-1.659-0.65-0.268-1.393 0.037-1.66 0.701" fill="#C6161D"/>
						<path d="m52.81 65.578c-1.699 2.537 0.426 5.79 2.803 6.935 0.664 0.237 1.394-0.106 1.619-0.771 0.239-0.664-0.105-1.394-0.771-1.633-0.757-0.425-1.302-1.089-1.541-1.899-0.119-0.412-0.688-0.757 0.08-1.354 0.359-0.6 0.159-1.381-0.452-1.74-0.61-0.362-1.38-0.149-1.738 0.462" fill="#C6161D"/>
						<polyline points="82.626 73.78 89.214 73.44 91.084 71.336 95.376 71.74 96.439 75.99 97.29 82.578 96.439 85.765 88.79 86.828 81.777 85.341 81.99 83.215 81.564 74.502" fill="#FFF3E1"/>
						<path d="m91.644 86.788c1.447-0.093 2.443-1.169 3.731-1.713 0.639-0.306 0.903-1.076 0.599-1.7-0.318-0.638-1.076-0.901-1.713-0.598-1.116 0.438-1.979 1.554-3.229 1.541-0.69 0.172-1.103 0.863-0.93 1.54 0.175 0.691 0.865 1.103 1.542 0.93" fill="#C6161D"/>
						<path d="m81.99 75.486c2.643 1.314 5.604 1.089 8.393 0.279 1.355-0.387 2.418-1.355 2.816-2.79 0.198-0.679-0.187-1.382-0.863-1.58-0.678-0.199-1.381 0.186-1.581 0.862-0.133 0.332-0.292 0.679-0.624 0.811-2.311 0.957-5.007 1.222-7.291 0.026-0.664-0.238-1.395 0.105-1.621 0.771-0.24 0.665 0.107 1.395 0.771 1.621" fill="#C6161D"/>
						<path d="m81.922 82.442c3.016 1.581 6.27 0.704 9.377 0.093l0.584-0.159c0.227-0.064 0.412-0.212 0.559-0.385l0.452-0.69c-0.015 0-0.015 0.015-0.026 0.015 0.372-1.647 2.363-2.086 3.812-2.393 0.703-0.053 1.234-0.663 1.183-1.366-0.054-0.704-0.664-1.235-1.368-1.184-2.417 0.398-5.021 1.421-5.99 3.865l-0.013 0.119 0.557-0.385-0.438 0.053c-2.523 0.545-5.246 1.382-7.703 0.053-0.651-0.265-1.396 0.04-1.674 0.691-0.268 0.651 0.037 1.395 0.688 1.673" fill="#C6161D"/>
						<path d="m101.33 70.89l8.84 7.14 6.886 1.573 3.654 0.297 0.809 3.103s-8.713 2.339-8.713 6.375c0 4.037-2.125 6.588-1.487 8.075 0.638 1.488 2.551 1.488 2.551 1.488l-2.125 2.55-3.188 0.212-2.125-2.55-4.463-3.613 1.275-6.375-1.062-2.762 1.699-5.312-1.699-5.949-1.7-4.889" fill="#FFF3E1"/>
						<path d="m103.33 71.143c-0.65 0.465-1.262 0.98-1.779 1.594-0.491 0.504-0.466 1.313 0.039 1.807 0.506 0.479 1.315 0.465 1.794-0.041 0.451-0.478 0.955-0.89 1.461-1.313 0.57-0.412-0.12-0.877-0.546-1.448-0.4-0.574-0.39-1.024-0.96-0.599" fill="#C6161D"/>
						<path d="m104.09 86.828c0.559-2.165 1.288-4.196 2.551-6.108 0.757-1.155 1.858-1.912 2.962-2.696 0.53-0.464 0.584-1.275 0.119-1.807-0.466-0.53-1.263-0.584-1.794-0.118-1.233 0.995-2.615 1.833-3.426 3.227-1.395 2.364-2.63 4.835-2.962 7.504 0 0.704 0.571 1.275 1.274 1.275 0.71-0.002 1.28-0.573 1.28-1.277" fill="#C6161D"/>
						<polyline points="96.014 71.953 99.415 70.252 102.81 75.14 103.66 81.728 103.03 86.7 103.24 90.653 100.69 97.877 95.165 107.87 88.79 116.15 84.751 120.19 78.886 122.23 75.402 115.73 73.277 108.72 72.426 100.64 74.551 100.43 77.527 95.54 77.357 94.69 75.189 86.615 75.827 82.365 77.101 74.502 76.04 69.615 75.402 63.028 79.439 67.703 81.99 77.265 81.139 83.64 81.777 85.341 94.74 86.403 96.439 84.703 97.926 78.965 96.014 71.953" fill="#29A6D1"/>
						<path d="m118.42 79.209c-2.104 0.676-4.429 0.457-6.307 1.974-3.071 2.45-4.901 5.797-5.842 9.459-0.669 2.645-0.921 5.391 0.229 7.909 0.229 0.665 0.964 1.017 1.629 0.787 0.664-0.229 1.017-0.964 0.774-1.627-1.57-3.571-0.166-7.368 1.58-10.742 1.031-1.984 2.388-3.668 4.507-4.426 1.404-0.496 2.878-0.425 4.255-0.93 0.665-0.229 1.018-0.95 0.789-1.615-0.23-0.665-0.95-1.017-1.61-0.789" fill="#C6161D"/>
						<polyline points="102.39 125.08 115.14 133.15 115.16 156.65 100.92 147.3 101.33 124.87" fill="#CB242B"/>
						<path d="m115.14 134l45.899-7.86v21.675l-45.05 9.774s-1.28-22.74-0.85-23.59" fill="#C6161D"/>
						<path d="m101.46 124.53s13.472-3.698 17.51-3.061l4.25-0.639 4.462 4.463 0.426 2.337h0.639l2.762-2.125 0.766 1.828 2.211 0.723 1.486-2.125 1.488 1.062 3.188-4.25 1.913-0.638 0.255-2.934 6.332-0.893 11.899 7.863-46.198 7.31-13.39-8.91" fill="#ED1C24"/>
						<path d="m118.96 100l-6.928-1.911s-3.463-13.649 8.33-14.962l1.147-0.127 5.737 4.037 3.825 4.463 4.037 7.015 0.213 7.012-0.639 7.013 1.7 2.337 2.763 5.738-0.213 4.462-2.763 1.573-0.638 1.401-3.441 0.299-0.809-3.91-1.488 2.975-1.062 0.212-2.763-5.523-2.764-1.275h-5.737s2.551-5.312 6.588-5.1l-5.11-15.74" fill="#FCC7AC"/>
						<path d="m79.907 44.709s-3.018-5.27-5.143-4.845-5.95 2.125-5.95 2.125l-0.991 4.675 1.417 5.525 2.677 2.72 1.289-0.595-2.267 5.1 6.375 5.95 3.399 3.4 1.912 5.015 5.525-0.34 3.612-1.7 2.125 0.851 8.116-5.439s13.898-12.07 8.841-20.74l3.739-8.84-7.479-7.479-0.468 5.524-6.801-4.675 0.426 4.675-8.799-7.565-2.89 7.99-1.771-6.375-5.666 8.926 0.851 5.101-2.078 1.016" fill="#FCC7AC"/>
						<path d="m81.422 7.565l9.492-0.851 7.226 1.417 5.101 4.25 5.808 5.101 4.393 4.958 2.976 8.075 0.143 6.375-2.691 1.699-5.525-8.5-0.85 4.25-7.523-2.211 0.299 3.485s-9.054-4.335-8.926-5.95c0.127-1.615-2.408 5.102-2.408 5.102l-3.471-5.401-3.259 14.309-2.339 0.727-2.409-3.117-5.809-0.992-4.816 6.658-4.392-6.658-1.275-9.35 2.55-9.775 5.653-4.675 3.399-1.87-4.095-5.922 6.093 1.984-2.551-4.817 4.249 1.983 5.526-5.384-0.568 5.1" fill="#654931"/>
						<path d="m84.157 0.34c-0.341 1.53-1.7 2.04-2.04 3.57-0.17 1.19-0.681 2.38 0.51 3.4 4.25-0.511 8.16-2.551 12.24-0.681 7.649 0.34 9.18 8.84 15.979 11.221 1.021 2.38 3.739 4.59 3.061 7.14h-0.681c-1.699-6.8-9.011-9.69-13.261-15.3-5.1-2.891-11.729-3.91-17-0.681-2.21-0.51-2.04-3.909-2.38-5.439-1.021 2.04-3.229 3.91-3.06 6.12-1.7 0.34-2.041-2.721-3.74-3.061 0.34 1.36 2.04 3.57 1.021 4.761-1.021-0.851-3.061-1.7-4.08-1.19 0.851 1.36 2.381 2.72 2.04 4.42-2.21-0.34-1.53-3.229-3.739-3.91-1.7-0.51-3.57 0.34-4.931-0.51 0.34-1.19 2.04-1.53 3.229-2.04 2.21-0.34 4.08 0.68 5.78 0.85-0.682-1.869-3.4-3.229-3.91-4.93 2.89-1.02 5.27 1.87 7.649 3.061 1.697-3.061 3.567-6.121 7.137-7.141l0.172 0.34"/>
						<path d="m71.407 16.15c-0.511 0.34-1.19-0.17-2.04 0.34-2.381 1.7-4.42 4.08-5.44 6.8-0.51 0-1.02 0-1.189-0.51 1.021-3.57 3.4-5.44 6.461-7.65 0.847 0.339 2.037 0 2.208 1.02"/>
						<path d="m62.226 28.39c-1.189 5.609 0.851 12.068 3.91 17-1.021 0.85-1.7-0.342-2.381-0.682-3.229-5.778-4.59-14.619-0.85-20.91 1.191 1.192-0.679 2.892-0.679 4.592"/>
						<path d="m117.14 35.7c-0.851 1.53-1.189 3.57-3.061 4.25-0.341 2.891-3.4 5.95-2.21 9.01 0.17 7.142-3.4 14.62-9.86 18.19-0.34 0-0.85 0-1.189-0.51 0.341-1.36 2.211-1.19 3.061-2.04 5.271-4.42 6.971-11.392 6.971-18.19l0.34-0.34c-1.021-1.7 0.851-3.399 1.529-5.101-0.17-1.359 1.36-3.399-0.68-4.079-1.189-0.512-0.17-1.7-0.851-2.381-0.851-0.851-1.529-2.211-2.721-2.381-0.34 1.36-0.17 3.57-1.699 4.42-1.189-0.34-0.511-1.528-1.359-2.039-1.7-1.189-3.57-3.061-5.44-2.381 0.511 1.53 0.681 3.57 0.341 4.762-1.699 0.51-1.021-1.36-1.87-2.04-2.55-0.681-4.761-2.21-6.971-3.4-1.02 1.53-1.869 3.061-2.89 4.59-2.04-0.68 0-4.25-2.55-5.1 0.17 2.72-1.36 4.59-1.87 6.8l-1.19 0.341c0.171-1.871 1.36-3.91 2.04-5.951v-1.7h0.17l0.171-1.53c1.529 1.021 2.89 2.04 3.739 3.91 1.87-1.021 0.34-4.25 2.38-4.762 1.19 3.23 4.421 4.421 7.312 5.61 0.34-1.189-0.511-2.21 0-3.229 3.06-0.171 5.27 1.528 7.648 3.06-0.17-1.021-0.17-2.38 0.682-3.399 3.398 0.511 5.1 4.25 7.14 6.119-0.511 0.512 0.17 0.852 0.34 1.36 2.21-2.21 1.7-5.44 1.19-8.16-0.511-1.02-1.53-2.21-1.021-3.399 2.89 2.38 3.06 6.119 2.38 9.69"/>
						<path d="m83.136 38.59c-0.171 2.209-0.851 3.91 0.34 5.779-0.681 1.021-1.529 0.68-2.551 0.51-0.51-0.34-0.51-0.68-0.51-1.02 2.38 0.51 0.51-2.21 1.021-3.062 0.171-1.017 0.341-2.377 1.7-2.207"/>
						<path d="m96.226 41.82c-1.529 1.021-2.721-1.021-4.08-1.021-1.699-0.51-3.569 1.531-4.931 1.021 0.511-1.021 2.381-2.04 3.91-2.21 1.872 0.17 4.251 0.17 5.101 2.21"/>
						<path d="m77.867 41.14c1.189 0.85 1.529 2.21 2.04 3.568-0.681 0.17-0.511 1.19-1.36 0.682 0.341-1.021-0.34-2.04-1.188-3.061-1.7-1.36-3.57-2.041-5.61-1.189-1.7 0.34-2.21 2.04-3.399 3.06 0 2.891-0.511 7.48 3.399 9.01 1.021 0.852 3.061-0.85 3.061 1.19-0.851 0.85-2.21 0.34-2.891 0.51-3.229-1.188-3.739-4.76-4.76-6.97-0.341-0.681-2.04-0.34-1.19-1.53 1.7-0.17 0.681-2.38 1.7-3.399 1.868-3.741 7.137-4.251 10.198-1.871"/>
						<path d="m109.15 41.82c0 0.34 0.17 0.851-0.34 0.851-1.189-0.34-2.04-1.359-3.229-1.699-1.189-0.342-2.38 1.529-3.229 0.17 0.851-1.36 3.061-1.36 4.42-1.19 0.85 0.338 2.04 0.847 2.38 1.868"/>
						<path d="m75.146 45.39v0.34c-0.851 0.51-1.699-1.36-2.38 0-0.681 0.68-1.359 2.04-0.511 3.06 0.341 0.34 1.021 0.511 0.852 1.19-1.021 1.359-2.041-0.852-2.381-1.53-0.17-1.7 0.51-3.74 2.381-4.42 0.85 0.17 1.869 0.34 2.039 1.36"/>
						<path d="m106.09 46.92c0.511-0.851 1.19-1.7 2.38-1.021 0.171 1.7-2.04 2.21-3.399 2.55-1.529 0.17-2.72-0.68-3.739-1.7v-1.359c1.53 0.68 2.89 3.06 4.76 1.53"/>
						<path d="m95.886 46.41c-0.341 1.36-2.211 1.87-3.229 2.72-1.53 0.512-3.061 0-4.25-1.02-0.681-0.34-0.511-1.021-0.851-1.36 1.021-0.85 2.04 1.19 3.061 1.36 2.55 0.68 3.229-3.401 5.269-1.7"/>
						<path d="m103.03 53.379c-0.681 1.36-1.19 2.722-2.721 3.062-2.21-0.34-4.08 0.17-5.439-1.87 2.04-0.17 3.74 1.36 5.609 0.34 1.02-0.511 1.02-2.551 2.55-1.532"/>
						<path d="m91.126 56.44c-1.02 0.68-1.189 1.529-0.34 2.21 2.89 2.04 7.14 2.21 10.199 0.68 1.189-0.34 0.341-2.04 1.7-1.7 1.189 0.682-0.511 1.53 0 2.041-2.04 1.869-3.909 5.101-7.141 4.931-1.87-0.17-4.42-0.681-5.27-2.892 0-0.85 0-2.38-1.021-3.229-0.85 0.68-1.87 0.85-2.89 1.02-1.19-1.358 1.359-0.85 1.869-1.87 0.69-0.511 2.56-4.081 2.899-1.191"/>
						<path d="m72.086 59.5c2.21 1.021 3.74 3.74 5.78 4.761l0.17-0.17c-1.36-2.381-3.399-4.931-2.21-7.819h0.34c0.681 4.93 3.569 10.2 8.5 11.899 0.851 0.34 2.04 0 2.55 1.021-0.68 0.85-2.55 0.17-3.739-0.34-0.851-1.021-2.21-1.19-3.229-1.7 2.04 5.1 2.891 11.05 1.7 17 2.21 0.85 4.42 1.021 6.63 1.531 1.7-0.341 5.1 0.679 6.8-0.853 2.04-2.379 2.04-5.779 1.53-8.5-0.171-1.358-1.19-2.55-1.53-3.909-2.21-0.341-5.609 0-6.63-2.721 1.36-0.51 2.04 1.19 3.061 1.53 2.891-0.17 5.609-0.34 7.819-2.891 0.511 0.17 0.851 1.021 0.34 1.529-0.85 1.36-3.569 1.36-3.569 2.891 1.7 2.721 2.551 6.29 1.529 9.69-0.17 1.36-1.529 2.379-1.359 4.079-4.08 0.85-7.311-0.17-11.22 0.17-3.061-1.189-6.46-1.529-9.011-3.738-0.17 1.359-0.51 3.229 0.17 4.25 1.36-0.172 2.551 0.168 3.74 1.02 1.36 1.529 0 3.398-0.17 4.93-0.341 0.682-1.189 1.53-2.04 1.19-0.17-0.169-0.34-0.681-0.851-0.681-0.681 0.34 0.171 0.512 0.171 1.021 0.34 2.721-0.852 5.271-3.062 6.461-0.34 0-0.51-0.34-0.85-0.17-1.021 4.42 0.85 9.688 2.38 14.279-0.341 0.341-0.681 0.171-1.021 0.171-2.04-4.932-2.891-10.881-2.551-16.32-4.08-2.89-9.18-1.53-13.09 0.34-0.681 0.851-1.359 1.53-2.38 1.7-0.51-1.7 1.529-2.21 2.72-3.4 4.08-1.528 9.69-2.55 13.771 0 0.51 0.341 0.68 1.87 1.699 1.021 1.699-2.55 2.381-4.931 0.51-7.991-0.851-3.229-0.851-6.63 0-9.859 1.7 0.341 2.891 2.551 4.761 2.721 2.21-3.91 0.17-7.65 0.17-11.9-1.359-2.55-1.53-6.8-5.271-7.31-1.021-2.381-3.399-3.57-5.779-4.42 0.34-0.852 1.359-1.021 1.869-1.87l1.7-2.04c0.853 0.848-0.848 2.208-0.848 3.398"/>
						<path d="m68.857 59.16c0.17 0.681-0.682 0.511-0.852 0.851-0.17-0.34-0.34-0.34-0.68-0.34-0.681 0.511-1.87 0-3.061 0.511-2.21 0.51-4.25 1.358-6.46 2.04-0.341-0.171-0.681-0.852-0.171-1.021 3.404-2.211 7.484-2.551 11.224-2.041"/>
						<path d="m98.777 61.54c-0.681 1.021-1.87 1.7-3.23 1.7-1.359-0.17-2.72-0.34-3.739-1.53l-0.17-1.02c2.038 1.529 4.758 0.68 7.139 0.85" fill="#fff"/>
						<path d="m55.596 63.75c-3.91 3.57-6.801 7.99-9.351 12.07-0.681 0.17-1.021 0-1.021-0.51 1.87-3.91 5.101-7.312 7.649-10.88 0.851-0.682 1.87-1.19 2.891-1.19l-0.168 0.51"/>
						<path d="m77.357 70.719c0.68 3.569-0.511 6.29-1.021 9.351-0.34 0.17-0.68 0-1.021-0.34 1.189-3.91 1.021-7.65 0.681-11.391 1.361-0.169 0.51 1.701 1.361 2.38"/>
						<path d="m115.1 78.54c1.359 1.7 4.25-0.85 5.609 1.36 1.19 0.85 1.701 2.38 1.701 3.911 7.479 3.229 13.26 10.37 13.599 18.699-0.169 1.359 1.021 3.909-0.849 4.421-0.852-2.551 0-5.44-0.852-7.65-1.359-2.891-1.869-7.312-4.93-8.501-1.529-4.589-9.011-4.08-9.011-9.01-1.19-2.38-3.4-0.511-4.76-2.21-2.041 1.02-3.57-1.36-5.44-1.53-3.229-1.87-5.439-5.95-9.181-6.63 4.08 4.08 3.57 10.54 2.041 15.3 0.34 1.7 0.85 4.251-0.17 5.95-2.381-0.85 0.51-3.4-1.021-5.1-1.359-1.53-3.229-0.34-4.42-1.869 1.53-1.191 4.08 1.357 5.271-1.191 0.341-4.59 0.511-9.521-2.891-12.75 1.36 0 1.021-1.36 2.21-1.36 4.76 1.871 7.82 7.311 13.09 8.161"/>
						<path d="m57.126 73.44c-3.569 4.42-4.08 10.54-4.76 15.81-0.51 1.191 1.021 3.57-1.36 3.4-0.68 0.51 0.511 0.681 0.511 1.19-0.17 3.569-0.511 8.67 3.399 10.71v1.359c-2.72-0.17-3.74-3.74-4.59-5.949-0.341-2.041 0.51-4.592 0-6.631-5.61 0.852-11.9 2.721-15.641-2.551-0.681-2.04-0.34-3.91 0.511-5.78-0.851-0.85-1.87-0.17-2.721 0.171-1.529 1.021-1.699 4.25-3.569 3.4 0.85-2.041 2.55-4.931 5.27-5.102 1.7 0.171 3.23 1.189 4.932-0.341 0.17 0.341 0.51 0.512 0.34 0.852-1.19 0.85-2.551 0.85-3.4 2.211-0.68 1.188-0.68 3.059 0 4.079 0.17 0.51 1.021 0.85 0.681 1.53l-0.17 0.169c1.529-0.169 3.061 1.021 4.76 1.36 3.229 0 6.291-0.341 9.521-1.36 0.511-6.8 1.19-13.091 4.931-18.699 0.506-0.679 1.695-0.849 1.355 0.171"/>
						<path d="m91.084 71.336c0.681 0.682-0.17 1.36-0.68 1.7-2.721 1.36-7.312 1.36-10.03-0.51l-0.51-1.19c3.74 2.551 7.48 1.531 11.22 0"/>
						<path d="m94.867 75.31c0.34 1.87-2.04 3.398-1.7 5.609l-1.529 1.53-0.511-0.681c1.189-2.208 1.7-5.098 3.74-6.458"/>
						<path d="m44.716 76.84c-0.51 2.38-2.38 5.271-5.27 5.949-0.851-1.699 1.529-1.699 2.21-2.89 1.19-0.849 1.53-2.719 3.06-3.059"/>
						<path d="m120.37 83.129c-1.87 1.191-4.59 2.041-5.78 4.422-1.359 2.381-2.72 4.93-2.72 7.818 0 1.021 1.189 1.871 0.17 2.722-1.7 0.341-0.68-1.7-1.53-2.38 0.17-5.102 2.721-10.541 7.311-12.582 0.85 0.172 1.87-0.339 2.55 0"/>
						<path d="m79.226 89.76c-0.34 0.851 0 2.381-1.189 3.061-0.34-1.53-2.04-2.72-0.851-4.249 1.021-0.511 1.7 0.678 2.04 1.188" fill="#fff"/>
						<path d="m27.207 90.27c-1.359 3.229-3.74 5.27-6.12 7.99-3.06 2.721-5.779 5.439-9.351 6.12-0.34 0-0.17-0.342-0.17-0.511 5.95-2.38 11.221-8.841 14.961-13.601l0.68 0.001"/>
						<path d="m102.35 93.841c-0.851 2.21 1.869 1.359 2.55 2.381 1.021 1.02 2.381 2.38 2.04 3.739-2.38 0.17-1.87-3.57-4.59-3.739-0.851 0.85-1.021 2.21-1.53 3.229-3.061 4.761-5.271 9.69-9.01 13.94-0.511 0-1.189 0.17-1.189-0.681 4.76-5.609 9.01-11.899 11.22-18.87l0.51 0.001"/>
						<path d="m118.16 99.281c0.17 1.36-1.36 1.021-2.21 0.851-0.851-1.189-3.4-0.851-2.891-2.721 1.87 0.341 3.4 1.532 5.1 1.872"/>
						<path d="m120.2 97.75c-1.021 5.78 2.211 10.881 4.251 15.812 1.02 2.04-1.36 2.72-2.38 3.569-1.361-0.17-2.382 0.681-3.062 1.529v0.851c-0.17 0-0.51 0-0.68 0.171 0.34 0.85 2.38 0.17 3.061 0.51 1.869-0.17 2.891 0 4.42 1.021-0.169 0.511 1.53 1.021 0.68 1.699 2.212 0.51 0.852 4.08 2.722 3.91 1.36-1.189 1.699-3.061 1.188-4.93-0.51-1.021-1.188-2.21-2.38-2.551 0.341-1.021 1.529-0.851 2.21 0 1.189 1.189 1.871 3.061 1.189 4.42 0.171 1.021 0.34 2.551-0.51 3.569-0.681 0.852-1.699 1.021-2.55 1.19-2.039-2.21-1.19-5.78-4.932-7.141-3.909-0.681-6.63 1.359-10.199 0.511 0.17-1.36 2.21-0.511 3.061-1.36 1.189-2.72 3.399-4.76 6.46-4.93 0.852-1.021 0-2.551-0.339-3.57-1.701-2.38-2.041-5.439-3.231-7.991 0-2.21-1.19-4.929 1.02-6.29"/>
						<path d="m111.7 100.98c1.02 1.87-1.7 1.188-2.211 1.529-1.189 0.171-2.039-0.681-2.55-1.529-0.17-1.021 1.021-0.681 1.529-0.51 0.68 1.53 2.04 0 3.23 0.51"/>
						<path d="m37.407 101.49c-1.021 0.851-3.061 0.17-4.421 0.68-4.42 0.852-8.329 2.381-12.239 4.08-0.511-0.17-0.511-0.68-0.34-1.02 5.1-2.55 11.05-4.25 16.659-4.25l0.341 0.51"/>
						<path d="m51.857 108.97c1.188 2.38 2.039 5.1 1.699 7.818l-1.189 1.021c-1.53-0.34 0.17-1.36 0-2.21 0-5.271-3.91-10.54-8.67-13.091-1.36-0.681-3.4-0.511-4.931-1.189 2.38-1.7 5.101 0.51 7.479 1.189 2.212 2.04 4.082 4.08 5.612 6.46"/>
						<path d="m57.806 106.08c0.68 4.08 0.68 8.67 3.909 11.73-0.34 1.02-0.68 1.529 0 2.55 1.021 12.24 7.312 22.439 14.79 32.13 1.87 0.851 1.87 2.721 2.891 3.74-0.851 2.72 2.04 4.59 3.91 6.29 5.101 0.34 5.609 5.27 9.01 8.33 2.891-0.682-1.359-2.891-1.021-4.761v-1.869c1.36 0.68 3.062 0.51 4.42 2.039 1.021 1.529 3.062 2.551 5.101 2.891 1.021-0.51 0.341-1.36 0.17-1.87-1.699-1.87-4.079-2.89-5.609-4.93 0-0.682 0.511-0.511 1.021-0.852l6.29 5.61c0.681 0 1.189-0.851 1.87-1.36 0-0.51-1.021-0.85-0.681-1.528 1.021-0.511 1.7 0.68 1.7 1.528 0.85 2.892-3.57 1.19-3.57 3.91-1.189 1.19-2.55 0.681-3.739-0.17-1.53-2.04-3.569-1.359-4.931-3.229-0.851 0.51 0.17 1.528 0.34 2.21 1.19 0.51 2.04 2.04 1.021 3.06-0.851 0.851-2.211 0.851-3.23 0.34-2.039-1.529-3.399-4.08-4.079-6.63-3.4-0.51-6.801-2.72-8.841-5.609-1.699-1.529 1.189-5.101-2.38-5.439-3.229-0.17-5.95 1.359-8.5-1.19 0.851-1.188 1.53 0.512 2.55 0.17 1.53 0.171 3.23-0.17 4.25-0.34-5.27-7.14-9.18-15.13-12.409-23.119-4.591 1.189-7.311-4.08-12.24-3.061-2.039 3.061-4.25 5.95-5.101 9.52 2.551 2.041 3.23 4.932 3.91 7.48-0.34 0.34-0.85 0.17-1.189 0.17-0.681-2.04-1.021-4.42-2.891-5.95-2.38 1.19-0.17 4.761-2.89 5.271 0.17-8.84 7.31-15.642 9.859-23.63 0.681 2.04-0.341 3.908-1.021 5.438 0.51 1.19 1.7 0 2.55 0.681 2.891 0.511 5.271 3.569 8.5 2.381-0.51-3.062-1.02-5.95-1.02-8.671 0.17 0 0.17-0.171 0.34-0.171-4.08-4.25-3.4-10.709-4.931-15.81l0.511-1.021c1.187 0.85 0.677 2.21 1.357 3.74"/>
						<path d="m9.867 105.91c-5.61 4.76-9.69 11.9-8.16 19.38 1.359 4.25 3.229 9.011 8.16 10.37 1.699-2.89 3.06-6.29 4.93-9.35 0.341-0.17 0.681 0 1.021 0.34-2.72 7.479-8.159 14.28-10.709 22.1 0.17 1.87-0.341 5.102 1.699 6.801 0.51 0.681 2.21 1.529 2.38 0-0.681-3.229 2.21-5.779 4.761-7.311 2.89-1.7 5.779-1.87 8.84-2.89 0.34 0.34 0.34 0.68 0.34 1.02-2.21 1.36-5.27 0.681-7.141 2.55-0.68-0.17-1.189 0.341-1.699 0.852 0.51 2.55 3.399 3.06 5.609 3.569 2.04 1.021 5.271-1.869 6.12 0.17-3.739 2.04-9.181 1.189-12.069-1.529-0.34-0.51-0.34-1.021-0.851-1.19-1.189 0.852-2.721 1.87-2.551 3.57-1.359 1.189-0.85 1.7-0.51 2.72-0.17 1.7-0.68 4.42 1.699 4.932 1.871 0.85 3.74-0.171 5.61 0.34 5.779 1.87 10.71 5.1 16.149 7.31 1.36 0.34 4.59-0.68 4.93 0.852-8.159 2.55-13.939-5.78-21.42-7.142-2.38 0-4.59 0-6.46-0.85-1.359 1.189-0.68 2.89-0.34 4.25 3.061 4.08 8.67 2.55 12.24 4.59 0 0.851-1.36 1.021-2.04 0.51-0.851-0.51-2.21-0.17-3.23-1.02-2.89 0.51-5.1-1.53-7.479-2.721-3.23-3.229 1.02-6.29-1.19-9.859-1.529-1.19-3.739-2.21-4.42-4.42-1.189-6.801 2.21-12.07 5.44-17.17-5.95-1.53-8.33-7.99-9.521-13.262-0.17-7.31 3.061-12.75 7.99-17.34 0.681 0 1.191-0.85 1.872-0.17"/>
						<path d="m19.216 106.93v0.51c-3.909 3.229-8.5 6.8-11.05 11.39-0.17 0-0.51 0-0.681-0.34 2.211-5.27 6.971-8.33 11.391-12.07l0.34 0.51"/>
						<path d="m135.16 113.73c3.91 1.529 6.8 6.46 11.389 3.74 5.611-0.682 9.861 7.989 15.98 3.739 3.229 0.34 6.801 1.189 8.33 4.42-2.039 1.021-2.72-2.721-4.931-2.891-2.55 0.17-3.909-1.189-5.949 0.51 1.529 0.852 0.341 2.892 1.87 3.74l-0.171 5.95h-1.188c-0.511-2.38 0.85-4.931-0.511-7.311-3.569-2.551-7.649-4.591-11.391-6.971-1.87 0.17-3.91-0.17-5.779 0.51 0 1.53 0 3.062-1.53 4.25-2.38-0.17-2.039 6.12-4.59 2.892 0.851-0.681 1.7-1.19 2.04-2.38 0-3.062-1.021-6.12-3.399-7.82l0.17-0.34c-0.851-0.511-2.041-1.53-1.87-2.721 1.358-2.21 0.339-3.569 1.53-5.779 1.19 2.04 0.34 4.25 0 6.46"/>
						<path d="m26.016 110.67c0 2.381-3.569 3.57-4.591 5.78-1.699 2.38-2.89 5.101-4.42 7.48-0.34 0-1.021 0.34-1.021-0.341v-0.681c2.723-4.25 5.272-9.69 10.032-12.24"/>
						<path d="m133.12 114.24c-1.361 1.021-3.23 0.68-4.25 0.17 0.849-1.188 2.549-1.188 3.739-1.02 0.34 0.34 0.68 0.51 0.51 0.85"/>
						<path d="m90.107 114.58c-0.682 2.04-2.551 5.102-4.761 5.271-0.341-0.17-0.171-0.682-0.171-1.19l4.08-4.08h0.852"/>
						<path d="m78.207 120.7c4.25-1.87 8.67-0.17 12.24 2.55 1.529 2.04 3.569 3.74 4.08 6.12-0.341 0-0.681-0.17-0.852 0.17-2.72-4.59-7.31-9.35-13.26-8.159-0.51 0.17-1.189 0.17-1.529 0.851-0.511 2.72 2.721 2.04 4.25 3.06 1.529 1.7 5.609 2.38 4.59 5.102-1.869-0.511-2.38-2.892-4.25-3.57-1.021-0.51-2.21-1.359-3.229-0.85 3.229 7.31 4.08 15.64 8.33 22.438 4.42-1.87 7.479-5.949 7.311-11.22 0.34-2.38-1.021-4.42-1.021-6.46 3.229 2.89 2.72 7.649 1.529 11.56-0.851 3.23-3.91 5.102-6.119 7.65-1.87 1.021-3.4-0.681-3.91-2.21-3.4-10.71-6.971-21.25-11.221-31.45 1.87 0.68 2.04 3.06 3.061 4.42"/>
						<path d="m136.18 126.65c-0.68 0.85-0.85 2.89-2.55 2.38-0.681 0.17-1.36 0-1.529-0.68 0-0.341-0.172-0.852 0.169-1.021 0.852 0.681 2.211 0.17 2.72-0.85 1.19-3.062-1.529-5.78-1.699-8.67 2.55 1.87 3.23 5.95 2.89 8.84"/>
						<path d="m141.45 120.19c-0.171 0.51 0 1.53-1.021 1.53l-1.358-3.91c1.19 0.34 1.87 1.19 2.38 2.38" fill="#FCC7AC"/>
						<path d="m112.72 122.23c-2.72 1.529-6.29 1.87-9.35 2.72 0.85 1.36 2.89 1.36 2.72 3.062-1.359 1.02-2.21-1.53-3.739-1.53-0.511 3.06-0.171 5.609-0.851 8.5-0.511 0.17-0.851 0-1.021-0.34 1.529-3.74-1.699-8.33 2.21-11.222 3.57 0.17 6.63-2.04 10.03-1.19"/>
						<path d="m159.64 126.31c-0.341 0.17-0.171 0.51-0.171 0.68-1.699 0.851-3.569 0.17-5.1 0.68-4.931 1.19-10.2 2.892-15.13 2.381-3.4 0.511-6.631 1.869-10.03 1.359 1.02-1.359 3.06-0.85 4.42-1.529 8.84-0.851 15.3-2.04 23.971-3.569 0.34-1.19 1.53-0.51 2.04 0"/>
						<path d="m181.57 128.52c0.17 1.189 1.869 1.189 2.55 2.21 0.51 2.38 2.72 3.569 4.42 4.76 1.53 2.55 0.68 4.76 0 7.48-1.53 1.02-3.229 2.21-5.271 1.358l-0.851-1.02c1.189-1.19 3.061 1.02 4.25-1.021 1.7-1.358 1.189-3.06 1.359-4.76-0.51-0.851-0.68-1.87-1.699-2.38h-0.34c-0.852 0.68 0.51 1.529-0.511 2.04-3.061-0.511 0.511 3.739-2.38 3.569-0.171-1.189-0.681-2.38 0-3.569l1.189-0.17c0.68-5.102-3.74-7.99-7.82-10.2-1.189 0.17-1.869-0.17-3.06 0.17-0.17 1.36 2.72 3.57 0.34 3.91-1.021-1.36-1.53-2.891-2.721-4.25 3.4-2.04 7.82-0.68 10.54 1.87"/>
						<path d="m115.61 133.62c-0.171 2.721 0.17 5.95-0.341 8.33-0.341 0-0.681 0-1.021-0.34 0.34-3.74 0.851-8.84-4.25-10.2-0.851-0.85-3.399-1.87-2.55-3.06 2.89 1.19 5.44 3.4 8.16 5.27"/>
						<path d="m169.84 130.56c1.021 1.529 0.511 3.739 0.34 5.438-0.85 1.7-2.72 1.53-4.25 2.04-0.85-0.34-2.039 0-2.72-1.02-1.7-1.87-0.17-4.42-0.51-6.46 1.87-1.02 5.44-2.72 7.14 0"/>
						<path d="m127 131.07c0.17 0.51-0.511 0.68-0.679 1.021-1.7 0.681-3.4 0.681-5.103 0.851-1.02 1.021-2.72 0.68-4.079 1.189-0.171-0.17-0.511-0.341-0.341-0.681 2.721-1.359 6.121-1.7 8.671-2.72 0.51 0.17 1.19-0.17 1.53 0.34"/>
						<path d="m90.107 132.43c0 0.34-0.341 0.51-0.511 0.68-1.021 0.17-1.53-0.68-1.021-1.53 0.511 0 1.021 0.34 1.532 0.85"/>
						<path d="m51.686 137.7c0.341 1.53 0.851 3.4 0.341 4.59h-1.19c0.511-3.229-1.359-6.63-3.91-9.35v-0.851c2.719 0.85 3.23 3.74 4.759 5.61"/>
						<path d="m175.79 132.94c0 0.51-0.34 1.021-0.681 1.021-0.681-0.341-1.529-1.021-1.021-1.87 0.68 0 1.36 0.17 1.7 0.85"/>
						<path d="m161.68 138.72c0.681 2.55 0.341 5.608 1.021 8.159 1.87 1.699 3.909-0.851 5.609-0.681 3.061-1.53 2.55-6.29 6.8-6.29 1.359 1.53 4.761-0.17 5.271 3.062 1.021 1.528 1.274 3.525 1.274 5.057-0.17 1.7-0.851 3.698-2.55 4.038 0.17 0.68-0.936 0.255-1.104 0.935-1.021 1.36-3.061 0.852-4.08 1.19-3.061-1.021-4.93-4.08-4.93-6.97-2.721 0.68-5.61 2.55-7.99 0 0-4.08-0.68-8.671-0.34-12.75 1.87 0.17 0.51 3.06 1.02 4.25"/>
						<path d="m101.5 143.82c-0.34 0.68-0.34 2.21 0 3.229 1.53 1.699 5.439 2.21 5.439 4.931 2.721-0.34 4.591 2.55 6.971 3.569 0.51-1.869 0.85-4.931 0.34-6.631 0.17-1.698-0.34-3.398 0.51-5.1l0.852 0.85c0 3.74-0.171 8.16 0.17 11.9 2.72 0.51 5.101 0.34 8.16-0.51 0.17 0.17 0.34 0.51 0.85 0.51-0.51-2.04 2.21-0.851 3.229-2.04 4.421-0.34 9.521-1.53 14.11-2.72 0 0.34 0.681 0.68 0.169 1.188-4.419 1.021-9.179 2.04-13.26 3.062 1.699 1.02 3.57 2.72 3.57 5.1 0 1.87-0.51 3.74-1.7 5.101-1.529 1.021-3.06 1.87-4.93 2.04-3.061-0.681-6.12-2.381-7.991-4.931-0.68-1.7-0.68-3.229 0-4.93-5.1 0.17-8.329-5.44-12.409-6.971-1.53-1.869-4.08-1.869-5.271-3.739-1.021-3.4 0.51-7.312 0-11.221l0.51-0.851c1.19 2.04 0.51 5.95 0.68 8.16"/>
						<path d="m49.986 149.94c-3.569 1.359-3.399 6.29-7.14 6.63-0.681-0.17-0.341-1.021-0.171-1.359 4.08-1.87 4.421-6.801 4.932-10.37 0.85-0.171 0.68 0.681 1.02 1.189 0.34 0.851-0.68 2.04 0 2.72 1.359-1.358 2.21-3.398 2.38-5.438 1.53 2.04 0.169 4.76-1.021 6.63"/>
						<path d="m42.676 145.69c0 2.89 0.171 6.63-2.55 8.67 1.021 2.04 2.721 3.229 4.761 3.91 3.399-0.852 7.311-1.19 10.199-3.74 3.91-0.34 7.141-2.55 11.051-2.04 0.34 0.51 0.34 0.851 0 1.36-4.761 0.17-9.859 1.188-13.771 4.08-1.7 0.34-3.4 0.68-4.76 1.358 2.72 0.852 4.76 3.74 5.27 6.29 0.34 2.21-0.34 5.102-1.87 6.971-0.68 0.17-1.359-0.17-1.529-0.851 0.51-0.85 1.359-1.53 1.87-2.55 0.17-2.04 0.511-5.101-1.36-6.8-0.68-1.021-1.869-1.36-2.72-1.19-0.511 1.021-1.021-0.17-1.7 0.17-1.699 0.511-4.08 1.36-4.93 3.4-1.021 1.188-0.511 4.08-2.04 3.91-0.511-3.062 1.359-5.95 3.909-7.65 0.852-0.17 1.53-0.68 2.21-1.021-2.21-1.699-5.27-2.891-6.29-5.609-2.039 0.34-3.398 2.72-5.439 3.06 0.511-2.209 3.061-3.568 5.101-4.42-0.851-1.02-1.529-2.72-3.06-2.72-2.041 0.17-3.91 1.021-5.102 2.21h-1.02c0-2.55 3.399-2.38 5.27-3.57-2.72-3.229-6.97-2.209-10.369-3.229 0-0.851 1.189-0.851 2.04-0.851 5.439 0 10.71 2.551 13.601 7.311 2.89-1.36 1.189-5.95 2.21-7.99 1.018-0.17 0.678 1.02 1.018 1.53"/>
						<path d="m160.49 148.07v0.68l-6.12 1.7c2.21 1.87 2.38 4.59 2.21 7.48-0.681 1.529-2.38 2.89-3.91 3.398-3.399-0.17-7.649 0.17-9.521-3.739-0.852-1.869-0.852-3.569 0.341-5.439l-0.341-0.34c4.421-1.36 9.351-2.21 13.771-3.4 1.02-0.34 2.38-1.36 3.57-0.34"/>
						<path d="m98.777 154.19c0.51 0.34 0.51 0.68 0.68 1.021-0.85 0.851-2.04 0.17-2.891-0.171-2.891-0.51-5.271-2.55-7.479-3.909l0.17-0.681c3.229 1.02 5.95 3.57 9.52 3.74"/>
						<path d="m28.226 152.83c-0.34 0.34-1.021 0.852-1.359 0.34-0.51-0.17-0.17-0.68-0.34-1.02 0.68-0.51 1.699 0.17 1.699 0.68"/>
						<path d="m144.34 156.57c-0.51-1.359 0-3.061 0.34-4.08l1.19-0.51c-0.51 1.53-1.7 3.06-1.53 4.59" fill="#fff"/>
						<path d="m28.056 154.19c-1.529 0.85-2.891 2.72-2.21 4.42 0.851 1.021 2.04 1.7 3.399 1.021 1.36-0.17 1.53-1.87 3.061-1.699 0.851 1.529-1.529 2.04-2.21 3.06-1.53 0.34-3.91 0.34-5.101-1.359-1.359-1.699-0.34-3.399 0.51-5.101 0.681-0.68 1.871-1.02 2.551-0.34"/>
						<path d="m106.43 158.1c-2.21-0.17-4.59-1.021-6.46-2.721 1.87-0.681 4.08 1.189 6.12 1.529 0.34 0.51 0.34 0.51 0.34 1.19"/>
						<path d="m120.37 158.44c-0.34 1.359-0.851 2.55-1.021 3.91 0-0.682-0.681-1.87-0.171-2.891 0.51-0.34 0.34-1.36 1.19-1.02" fill="#fff"/>
						<path d="m106.09 159.29l0.851 0.171c0.511 1.699-1.359 2.209-2.38 2.551-1.189-0.342-2.381-1.7-3.57-1.021l2.381 2.21-0.851 0.851c-1.53-1.529-3.909-2.891-3.909-4.931 2.719-1.19 5.439 3.06 7.479 0.17"/>
						<path d="m174.94 163.37c0.34 0.681-0.34 1.19-1.021 1.19-4.08-0.34-6.97 0.17-11.05 0.85-0.341 0.17-0.681 0.51-1.021 0.852-3.91-0.342-8.33-0.682-12.07 0.34 0.511 0.85 2.041 0.17 1.7 1.529-1.7 0.341-4.25-0.17-5.779 0.511l-6.29 1.02v1.19h-9.861c-0.169 1.699-2.38 1.02-3.061 0.85-2.889-1.7-7.14-0.85-10.199-0.85-0.17-0.852 0.851-1.021 1.359-1.19 5.779 0 12.239 0.17 17.682 0 2.55-2.38 6.8-1.02 9.859-2.04 2.381 1.021 1.529-2.38 3.739-2.38 7.312-0.34 14.62-1.02 21.931-2.04l4.08 0.17"/>
						<path d="m41.316 175.78c2.211-0.17 4.761-1.021 6.631-2.21 0.68 0.51 0.68 1.021 0.34 1.36-8.16 4.25-17.51 1.358-24.99-2.721l-0.34-0.511c0.681-0.85 1.87 0 2.891 0 4.588 2.72 9.689 4.76 15.468 4.08"/>
						<path d="m127.14 163.82c1.245 0 2.255-1.076 2.255-2.404 0-1.327-1.01-2.402-2.255-2.402s-2.254 1.075-2.254 2.402c0 1.32 1.01 2.4 2.25 2.4" fill="#C8C7B3"/>
						<path d="m150.84 157.55c1.245 0 2.254-1.075 2.254-2.403s-1.009-2.404-2.254-2.404c-1.244 0-2.254 1.076-2.254 2.404s1 2.4 2.25 2.4" fill="#C8C7B3"/>
														<path d="m97.09 95.397c1.014 0.569 2.493-0.142 3.308-1.588 0.813-1.446 0.652-3.081-0.359-3.65-1.013-0.57-2.493 0.142-3.308 1.588s-0.653 3.081 0.358 3.65" fill="#fff"/>
														<path d="m96.722 96.05c0.556 0.313 1.208 0.378 1.886 0.188 0.969-0.271 1.857-1.022 2.441-2.062 0.585-1.037 0.767-2.188 0.494-3.156-0.188-0.679-0.584-1.202-1.14-1.515-0.554-0.312-1.206-0.378-1.884-0.188-0.969 0.271-1.859 1.021-2.444 2.062-1.027 1.835-0.743 3.887 0.65 4.671zm0.661-3.935c0.387-0.686 0.963-1.191 1.542-1.354 0.199-0.056 0.49-0.092 0.744 0.052 0.255 0.144 0.375 0.411 0.432 0.61 0.162 0.579 0.027 1.333-0.356 2.019-0.386 0.686-0.961 1.19-1.54 1.354-0.199 0.057-0.491 0.093-0.745-0.051-0.558-0.316-0.726-1.472-0.076-2.63z"/>
														<path d="m168.65 131.75c-0.17 1.36 0.511 2.722-0.34 3.91-1.189 0.17-2.381 1.19-3.569 0.851-1.7-1.529-0.17-3.399-0.851-5.101 1.36-0.85 3.91-1.36 4.76 0.34" fill="#808080"/>
														<path d="m175.49 149.55c1.244 0 2.254-1.075 2.254-2.403s-1.01-2.404-2.254-2.404c-1.245 0-2.254 1.076-2.254 2.404s1 2.4 2.25 2.4" fill="#C8C7B3"/>
																		<polyline points="9.739 161.7 15.688 163.12 19.656 163.97 26.456 167.08 34.672 169.92 37.222 170.48 38.922 166.8 41.472 161.7 45.438 159.72 40.906 157.17 38.426 154.36 32.306 157.93 31.555 160.28 27.873 161.7 24.997 159.63 24.755 157.17 26.867 153.51 21.638 154.9 18.805 154.33 14.555 152.35 13.096 150.79 9.739 151.78 9.186 155.55 9.739 161.7"/>
																		<polyline points="88.032 69.456 87.053 72.998 90.454 71.864 89.561 69.966 88.032 69.456"/>
																	<path d="m175.49 149.55c1.244 0 2.254-1.075 2.254-2.403s-1.01 0-2.254 0c-1.245 0-2.254-1.328-2.254 0s1 2.4 2.25 2.4" fill="none"/>
															<path d="m175.49 149.55c1.244 0 2.254-1.075 2.254-2.403s-1.01 0-2.254 0c-1.245 0-2.254-1.328-2.254 0s1 2.4 2.25 2.4" fill="#fff"/>
													<path d="m127.3 163.81c1.243 0 2.253-1.077 2.253-2.405 0-1.327-1.01 0-2.253 0-1.245 0-2.255-1.327-2.255 0 0.01 1.33 1.02 2.41 2.26 2.41" fill="none"/>
											<path d="m127.3 163.81c1.243 0 2.253-1.077 2.253-2.405 0-1.327-1.01 0-2.253 0-1.245 0-2.255-1.327-2.255 0 0.01 1.33 1.02 2.41 2.26 2.41" fill="#fff"/>
									<path d="m150.84 157.59c1.245 0 2.254-1.076 2.254-2.403 0-1.328-1.009 0-2.254 0-1.244 0-2.254-1.328-2.254 0-0.01 1.32 1 2.4 2.25 2.4" fill="none"/>
							<path d="m150.84 157.59c1.245 0 2.254-1.076 2.254-2.403 0-1.328-1.009 0-2.254 0-1.244 0-2.254-1.328-2.254 0-0.01 1.32 1 2.4 2.25 2.4" fill="#fff"/>
					<path d="m186.03 137.78c-0.144 1.204-0.655 2.161-1.771 2.745-0.566 0.425-0.673 1.222-0.248 1.789 0.426 0.564 1.223 0.673 1.771 0.247 1.486-0.903 2.496-2.303 2.691-4.037 0.193-0.674-0.178-1.381-0.851-1.595-0.67-0.19-1.38 0.18-1.59 0.86" fill="none"/>
			<path d="m186.03 137.78c-0.144 1.204-0.655 2.161-1.771 2.745-0.566 0.425-0.673 1.222-0.248 1.789 0.426 0.564 1.223 0.673 1.771 0.247 1.486-0.903 2.496-2.303 2.691-4.037 0.193-0.674-0.178-1.381-0.851-1.595-0.67-0.19-1.38 0.18-1.59 0.86" fill="none"/>
		<path d="m175.21 148.45c0.465-0.026 1.076-0.026 1.274-0.704l0.425 0.744c-0.172 0.558-0.811 0.729-1.274 0.703l-0.42-0.74"/>
		<path d="m126.97 162.88c0.464-0.027 1.075-0.027 1.274-0.704l0.426 0.744c-0.173 0.558-0.812 0.729-1.276 0.703l-0.42-0.74"/>
		<path d="m150.56 156.49c0.466-0.027 1.076-0.027 1.275-0.704l0.425 0.744c-0.172 0.558-0.811 0.729-1.274 0.703l-0.43-0.74"/>
<metadata><rdf:RDF><cc:Work><dc:format>image/svg+xml</dc:format><dc:type rdf:resource="http://purl.org/dc/dcmitype/StillImage"/><cc:license rdf:resource="http://creativecommons.org/licenses/publicdomain/"/><dc:publisher><cc:Agent rdf:about="http://openclipart.org/"><dc:title>Openclipart</dc:title></cc:Agent></dc:publisher><dc:title>boy playing with toy truck</dc:title><dc:date>2006-10-17T22:00:30</dc:date><dc:description>cartoon of a boy playing with a truck from http://www.usda.gov/cnpp/KidsPyra/&#xD;\n&#xD;\nNational Agricultural Library, Agricultural Research Service, U. S. Department of Agriculture</dc:description><dc:source>http://openclipart.org/detail/724/boy-playing-with-toy-truck-by-johnny_automatic</dc:source><dc:creator><cc:Agent><dc:title>johnny_automatic</dc:title></cc:Agent></dc:creator><dc:subject><rdf:Bag><rdf:li>boy</rdf:li><rdf:li>cartoon</rdf:li><rdf:li>child</rdf:li><rdf:li>clip art</rdf:li><rdf:li>clipart</rdf:li><rdf:li>image</rdf:li><rdf:li>media</rdf:li><rdf:li>play</rdf:li><rdf:li>png</rdf:li><rdf:li>public domain</rdf:li><rdf:li>svg</rdf:li><rdf:li>toy</rdf:li><rdf:li>toy truck</rdf:li><rdf:li>usda</rdf:li></rdf:Bag></dc:subject></cc:Work><cc:License rdf:about="http://creativecommons.org/licenses/publicdomain/"><cc:permits rdf:resource="http://creativecommons.org/ns#Reproduction"/><cc:permits rdf:resource="http://creativecommons.org/ns#Distribution"/><cc:permits rdf:resource="http://creativecommons.org/ns#DerivativeWorks"/></cc:License></rdf:RDF></metadata></svg>
