<?xml version="1.0"?>
<svg xmlns:rdf="http://www.w3.org/1999/02/22-rdf-syntax-ns#" xmlns="http://www.w3.org/2000/svg" xmlns:cc="http://web.resource.org/cc/" xmlns:xlink="http://www.w3.org/1999/xlink" xmlns:dc="http://purl.org/dc/elements/1.1/" xmlns:svg="http://www.w3.org/2000/svg" id="svg5723" viewBox="0 0 1024 400" version="1.0">
  <defs id="defs5725">
    <pattern id="pattern3507" xlink:href="#pattern16303" patternTransform="matrix(.49815 0 0 .49815 418.06 472.18)"/>
    <pattern id="pattern16303" xlink:href="#pattern9238" patternTransform="matrix(.60653 0 0 .60653 456.49 743.92)"/>
    <linearGradient id="linearGradient16283">
      <stop id="stop16285" stop-color="#252b41" offset="0"/>
      <stop id="stop16287" stop-color="#252b41" stop-opacity="0" offset="1"/>
    </linearGradient>
    <linearGradient id="linearGradient7359">
      <stop id="stop7361" offset="0"/>
      <stop id="stop7363" stop-color="#1e1d2e" offset="1"/>
    </linearGradient>
    <linearGradient id="linearGradient7172">
      <stop id="stop7174" stop-color="#fff" offset="0"/>
      <stop id="stop7176" stop-color="#03070b" stop-opacity=".65482" offset="1"/>
    </linearGradient>
    <linearGradient id="linearGradient6994">
      <stop id="stop6996" stop-color="#1b2c3c" offset="0"/>
      <stop id="stop6998" stop-color="#dfe8f1" offset="1"/>
    </linearGradient>
    <linearGradient id="linearGradient5896">
      <stop id="stop5898" stop-color="#fff" offset="0"/>
      <stop id="stop5907" stop-color="#a3701c" offset=".21875"/>
      <stop id="stop5900" stop-color="#582d00" offset="1"/>
    </linearGradient>
    <linearGradient id="linearGradient5915">
      <stop id="stop5917" stop-color="#aaa" offset="0"/>
      <stop id="stop5919" stop-color="#aaa" stop-opacity="0" offset="1"/>
    </linearGradient>
    <pattern id="pattern9238" xlink:href="#pattern8227" patternTransform="matrix(.60653 0 0 .60653 308.75 855.34)"/>
    <linearGradient id="linearGradient5979">
      <stop id="stop5981" stop-color="#eee" offset="0"/>
      <stop id="stop5983" stop-color="#eee" stop-opacity="0" offset="1"/>
    </linearGradient>
    <linearGradient id="linearGradient4971">
      <stop id="stop4973" offset="0"/>
      <stop id="stop4975" stop-opacity="0" offset="1"/>
    </linearGradient>
    <linearGradient id="linearGradient7563">
      <stop id="stop7565" stop-color="#888" offset="0"/>
      <stop id="stop7567" stop-color="#fff" offset="1"/>
    </linearGradient>
    <linearGradient id="linearGradient6653">
      <stop id="stop6655" stop-color="#410e0e" offset="0"/>
      <stop id="stop6657" stop-color="#100303" stop-opacity="0" offset="1"/>
    </linearGradient>
    <pattern id="pattern8227" width="17.5" patternUnits="userSpaceOnUse" patternTransform="translate(308.75 855.34)" height="13">
      <path id="path8209" style="color:#000000" fill-rule="evenodd" d="m6.6667 9.6667c0-1.84-1.4934-3.3334-3.3334-3.3334s-3.3333 1.4934-3.3333 3.3334c5.025e-11 1.8403 1.4933 3.3333 3.3333 3.3333s3.3333-1.493 3.3334-3.3333z"/>
      <path id="path8207" style="color:#000000" fill-rule="evenodd" d="m14 9.6667c0-1.84-1.493-3.3334-3.333-3.3334-1.8403 0-3.3337 1.4934-3.3337 3.3334 0 1.8403 1.4933 3.3333 3.3337 3.3333 1.84 0 3.333-1.493 3.333-3.3333z"/>
      <path id="path8185" style="color:#000000" fill-rule="evenodd" d="m10.167 3.3333c0-1.84-1.4937-3.3333-3.3337-3.3333s-3.3333 1.4933-3.3333 3.3333 1.4933 3.3334 3.3333 3.3334 3.3337-1.4934 3.3337-3.3334z"/>
      <path id="path8189" style="color:#000000" fill-rule="evenodd" d="m17.5 3.3333c0-1.84-1.493-3.3333-3.333-3.3333s-3.334 1.4933-3.334 3.3333 1.494 3.3334 3.334 3.3334 3.333-1.4934 3.333-3.3334z"/>
    </pattern>
    <radialGradient id="radialGradient3034" gradientUnits="userSpaceOnUse" cy="440.62" cx="540.56" gradientTransform="matrix(1 0 0 .48562 0 226.65)" r="424.05">
      <stop id="stop16770" offset="0"/>
      <stop id="stop16776" stop-opacity=".49804" offset=".69531"/>
      <stop id="stop16772" stop-opacity="0" offset="1"/>
    </radialGradient>
    <radialGradient id="radialGradient3038" xlink:href="#linearGradient7359" spreadMethod="reflect" gradientUnits="userSpaceOnUse" cy="590.57" cx="621.83" gradientTransform="matrix(.72473 4.7749e-7 -9.2254e-7 1.4002 607.01 -234.04)" r="71.858"/>
    <radialGradient id="radialGradient3040" xlink:href="#linearGradient5979" spreadMethod="reflect" gradientUnits="userSpaceOnUse" cy="608.5" cx="632.27" gradientTransform="matrix(.49031 .012063 -.019763 .80327 779.59 102.59)" r="71.858"/>
    <radialGradient id="radialGradient3042" xlink:href="#linearGradient4971" spreadMethod="reflect" gradientUnits="userSpaceOnUse" cy="603.69" cx="627.11" gradientTransform="matrix(.85686 0 .0000017021 1.6555 524.14 -388.15)" r="71.858"/>
    <linearGradient id="linearGradient3044" x1="667.76" xlink:href="#linearGradient6994" spreadMethod="reflect" gradientUnits="userSpaceOnUse" y1="528.76" gradientTransform="translate(431.34)" x2="561.7" y2="879.24"/>
    <linearGradient id="linearGradient3046" x1="627.95" xlink:href="#linearGradient4971" gradientUnits="userSpaceOnUse" y1="539.87" gradientTransform="translate(431.34)" x2="636.76" y2="527.14"/>
    <linearGradient id="linearGradient3048" x1="617.48" xlink:href="#linearGradient5979" gradientUnits="userSpaceOnUse" y1="564.97" gradientTransform="translate(431.34)" x2="639.13" y2="546.08"/>
    <linearGradient id="linearGradient3050" x1="636.04" xlink:href="#linearGradient7172" gradientUnits="userSpaceOnUse" y1="522.03" gradientTransform="translate(431.34)" x2="634.98" y2="564.67"/>
    <radialGradient id="radialGradient3052" xlink:href="#linearGradient7172" gradientUnits="userSpaceOnUse" cy="583.85" cx="624.91" gradientTransform="matrix(11.672 0 0 10.017 -6665.7 -5267.5)" r="8.25"/>
    <linearGradient id="linearGradient3054" x1="640.39" xlink:href="#linearGradient7172" gradientUnits="userSpaceOnUse" y1="584.26" gradientTransform="translate(431.34)" x2="630.81" y2="622.66"/>
    <linearGradient id="linearGradient3056" x1="627.19" xlink:href="#linearGradient7172" gradientUnits="userSpaceOnUse" y1="643.59" gradientTransform="translate(431.34)" x2="623.25" y2="674.8"/>
    <linearGradient id="linearGradient3058" x1="607.39" xlink:href="#linearGradient7172" gradientUnits="userSpaceOnUse" y1="611.66" gradientTransform="translate(431.34)" x2="594.91" y2="640.13"/>
    <linearGradient id="linearGradient3060" x1="602.03" xlink:href="#linearGradient7172" gradientUnits="userSpaceOnUse" y1="543.92" gradientTransform="translate(431.34)" x2="591.7" y2="572.33"/>
    <linearGradient id="linearGradient3062" x1="629.38" xlink:href="#linearGradient4971" gradientUnits="userSpaceOnUse" y1="611.31" gradientTransform="translate(431.34)" x2="641.48" y2="573.3"/>
    <linearGradient id="linearGradient3064" x1="613.96" xlink:href="#linearGradient4971" gradientUnits="userSpaceOnUse" y1="647.56" gradientTransform="translate(431.34)" x2="633.67" y2="618.38"/>
    <linearGradient id="linearGradient3066" x1="600.35" xlink:href="#linearGradient4971" gradientUnits="userSpaceOnUse" y1="610.96" gradientTransform="translate(431.34)" x2="592.51" y2="591.56"/>
    <linearGradient id="linearGradient3068" x1="606.29" xlink:href="#linearGradient4971" gradientUnits="userSpaceOnUse" y1="545.46" gradientTransform="translate(431.34)" x2="600.72" y2="569.36"/>
    <linearGradient id="linearGradient3070" x1="610.31" xlink:href="#linearGradient6994" gradientUnits="userSpaceOnUse" y1="547.36" gradientTransform="translate(431.34)" x2="623.41" y2="545.77"/>
    <linearGradient id="linearGradient3072" x1="606.05" xlink:href="#linearGradient6994" gradientUnits="userSpaceOnUse" y1="613.67" gradientTransform="translate(431.34)" x2="626.22" y2="668.42"/>
    <linearGradient id="linearGradient3074" x1="623.2" xlink:href="#linearGradient6994" gradientUnits="userSpaceOnUse" y1="627.22" gradientTransform="translate(431.34)" x2="640.17" y2="638.06"/>
    <linearGradient id="linearGradient3076" x1="599.1" xlink:href="#linearGradient6994" gradientUnits="userSpaceOnUse" y1="599.91" gradientTransform="translate(431.34)" x2="642" y2="572.53"/>
    <radialGradient id="radialGradient3078" xlink:href="#linearGradient7359" spreadMethod="reflect" gradientUnits="userSpaceOnUse" cy="590.57" cx="621.83" gradientTransform="matrix(.72473 4.7749e-7 -9.2254e-7 1.4002 175.67 -234.04)" r="71.858"/>
    <radialGradient id="radialGradient3080" xlink:href="#linearGradient5979" spreadMethod="reflect" gradientUnits="userSpaceOnUse" cy="608.5" cx="632.27" gradientTransform="matrix(.49031 .012063 -.019763 .80327 348.25 102.59)" r="71.858"/>
    <radialGradient id="radialGradient3082" xlink:href="#linearGradient4971" spreadMethod="reflect" gradientUnits="userSpaceOnUse" cy="603.69" cx="627.11" gradientTransform="matrix(.72473 4.7749e-7 -9.2254e-7 1.4002 175.67 -234.04)" r="71.858"/>
    <linearGradient id="linearGradient3084" x1="611.35" xlink:href="#linearGradient6994" spreadMethod="reflect" gradientUnits="userSpaceOnUse" y1="650.86" gradientTransform="translate(-2,2)" x2="640.58" y2="543.44"/>
    <linearGradient id="linearGradient3086" x1="621" xlink:href="#linearGradient6994" spreadMethod="reflect" gradientUnits="userSpaceOnUse" y1="585.91" x2="529.11" y2="660.17"/>
    <linearGradient id="linearGradient3088" x1="627.95" xlink:href="#linearGradient4971" gradientUnits="userSpaceOnUse" x2="636.76" y1="539.87" y2="527.14"/>
    <linearGradient id="linearGradient3090" x1="617.48" xlink:href="#linearGradient5979" gradientUnits="userSpaceOnUse" x2="639.13" y1="564.97" y2="546.08"/>
    <linearGradient id="linearGradient3092" x1="636.04" xlink:href="#linearGradient7172" gradientUnits="userSpaceOnUse" x2="634.98" y1="522.03" y2="564.67"/>
    <linearGradient id="linearGradient3096" x1="640.39" xlink:href="#linearGradient7172" gradientUnits="userSpaceOnUse" x2="630.81" y1="584.26" y2="622.66"/>
    <linearGradient id="linearGradient3098" x1="627.19" xlink:href="#linearGradient7172" gradientUnits="userSpaceOnUse" x2="623.25" y1="643.59" y2="674.8"/>
    <linearGradient id="linearGradient3100" x1="607.39" xlink:href="#linearGradient7172" gradientUnits="userSpaceOnUse" x2="594.91" y1="611.66" y2="640.13"/>
    <linearGradient id="linearGradient3102" x1="602.03" xlink:href="#linearGradient7172" gradientUnits="userSpaceOnUse" x2="591.7" y1="543.92" y2="572.33"/>
    <linearGradient id="linearGradient3104" x1="629.38" xlink:href="#linearGradient4971" gradientUnits="userSpaceOnUse" x2="641.48" y1="611.31" y2="573.3"/>
    <linearGradient id="linearGradient3106" x1="613.96" xlink:href="#linearGradient4971" gradientUnits="userSpaceOnUse" x2="633.67" y1="647.56" y2="618.38"/>
    <linearGradient id="linearGradient3108" x1="600.35" xlink:href="#linearGradient4971" gradientUnits="userSpaceOnUse" x2="592.51" y1="610.96" y2="591.56"/>
    <linearGradient id="linearGradient3110" x1="606.29" xlink:href="#linearGradient4971" gradientUnits="userSpaceOnUse" x2="600.72" y1="545.46" y2="569.36"/>
    <linearGradient id="linearGradient3112" x1="610.31" xlink:href="#linearGradient6994" gradientUnits="userSpaceOnUse" x2="623.41" y1="547.36" y2="545.77"/>
    <linearGradient id="linearGradient3114" x1="606.05" xlink:href="#linearGradient6994" gradientUnits="userSpaceOnUse" x2="626.22" y1="613.67" y2="668.42"/>
    <linearGradient id="linearGradient3116" x1="623.2" xlink:href="#linearGradient6994" gradientUnits="userSpaceOnUse" x2="640.17" y1="627.22" y2="638.06"/>
    <linearGradient id="linearGradient3118" x1="599.1" xlink:href="#linearGradient6994" gradientUnits="userSpaceOnUse" x2="642" y1="599.91" y2="572.53"/>
    <linearGradient id="linearGradient3140" x1="391.63" xlink:href="#linearGradient4971" gradientUnits="userSpaceOnUse" x2="350.01" y1="525.75" y2="657.3"/>
    <linearGradient id="linearGradient3142" x1="370.79" xlink:href="#linearGradient5979" gradientUnits="userSpaceOnUse" x2="432.79" y1="733.72" y2="568.25"/>
    <linearGradient id="linearGradient3144" x1="356.13" xlink:href="#linearGradient4971" gradientUnits="userSpaceOnUse" x2="357.01" y1="657.3" y2="638.3"/>
    <linearGradient id="linearGradient3150" x1="50.772" xlink:href="#linearGradient5979" gradientUnits="userSpaceOnUse" x2="71.355" y1="420.28" y2="470.67"/>
    <linearGradient id="linearGradient3152" x1="1.4749" xlink:href="#linearGradient5915" gradientUnits="userSpaceOnUse" y1="510.41" gradientTransform="matrix(1.1326 0 0 1.0544 -4.4636 -23.154)" x2="3.4805" y2="488.08"/>
    <linearGradient id="linearGradient3154" x1="-1039.7" xlink:href="#linearGradient5979" gradientUnits="userSpaceOnUse" y1="503.28" gradientTransform="translate(1056.9 6.364)" x2="-1039.7" y2="493.75"/>
    <linearGradient id="linearGradient3156" x1="38.673" xlink:href="#linearGradient5979" gradientUnits="userSpaceOnUse" y1="428.33" gradientTransform="matrix(.87892 0 0 .89240 7.0644 49.507)" x2="64.187" y2="457.21"/>
    <linearGradient id="linearGradient3158" x1="51.647" xlink:href="#linearGradient5979" gradientUnits="userSpaceOnUse" y1="475.14" gradientTransform="matrix(.87892 0 0 .89240 7.0644 49.507)" x2="66.614" y2="447.78"/>
    <linearGradient id="linearGradient3160" x1="41.741" xlink:href="#linearGradient5979" gradientUnits="userSpaceOnUse" y1="420.98" gradientTransform="matrix(1.2601 -.54079 -.070165 1.0859 -3.803 9.3962)" x2="64.108" y2="452.07"/>
    <linearGradient id="linearGradient3170" y2="512.13" gradientUnits="userSpaceOnUse" y1="482.08" x2="562.86" x1="577">
      <stop id="stop9889" stop-color="#fd3301" offset="0"/>
      <stop id="stop9891" stop-color="#fd3301" stop-opacity="0" offset="1"/>
    </linearGradient>
    <radialGradient id="radialGradient3178" xlink:href="#linearGradient6653" gradientUnits="userSpaceOnUse" cy="545.55" cx="740.1" gradientTransform="matrix(2.9001 0 0 4.6481 -1417.3 -1993.7)" r="41.69"/>
    <linearGradient id="linearGradient3208" x1="527.97" xlink:href="#linearGradient5915" gradientUnits="userSpaceOnUse" x2="524.5" y1="440.59" y2="457.09"/>
    <linearGradient id="linearGradient3210" x1="494.36" xlink:href="#linearGradient7563" spreadMethod="reflect" gradientUnits="userSpaceOnUse" y1="449.44" x2="503.73" y2="461.89"/>
    <linearGradient id="linearGradient3212" x1="470.5" xlink:href="#linearGradient7563" spreadMethod="reflect" gradientUnits="userSpaceOnUse" y1="474.01" x2="479.86" y2="485.41"/>
    <linearGradient id="linearGradient3214" x1="490.31" xlink:href="#linearGradient4971" gradientUnits="userSpaceOnUse" x2="491.38" y1="465.17" y2="473.16"/>
    <linearGradient id="linearGradient3216" x1="463.08" xlink:href="#linearGradient4971" gradientUnits="userSpaceOnUse" x2="473.85" y1="474.12" y2="481.29"/>
    <linearGradient id="linearGradient3218" x1="502.48" xlink:href="#linearGradient4971" gradientUnits="userSpaceOnUse" x2="511.13" y1="440.05" y2="455.03"/>
    <linearGradient id="linearGradient3220" x1="516.01" xlink:href="#linearGradient7563" gradientUnits="userSpaceOnUse" x2="529.98" y1="457.51" y2="450.26"/>
    <radialGradient id="radialGradient3222" xlink:href="#linearGradient5979" gradientUnits="userSpaceOnUse" cy="456.27" cx="498.18" gradientTransform="matrix(3.5471 0 .84321 3.8858 -1683.1 -1299.1)" r="5.5547"/>
    <radialGradient id="radialGradient3224" xlink:href="#linearGradient5979" gradientUnits="userSpaceOnUse" cy="446.96" cx="512.22" gradientTransform="matrix(2.9095 0 0 3.0953 -978.07 -936.85)" r="5.5547"/>
    <radialGradient id="radialGradient3226" xlink:href="#linearGradient5979" gradientUnits="userSpaceOnUse" cy="515.31" cx="429.21" gradientTransform="matrix(1.5498 0 0 .086121 -235.98 470.93)" r="29.948"/>
    <linearGradient id="linearGradient3380" x1="505.09" xlink:href="#linearGradient16283" gradientUnits="userSpaceOnUse" y1="426.1" gradientTransform="matrix(.82132 0 0 .82132 164.48 -230.33)" x2="543.56" y2="391.98"/>
    <linearGradient id="linearGradient3383" x1="223.41" xlink:href="#linearGradient6994" gradientUnits="userSpaceOnUse" y1="427.08" gradientTransform="matrix(.82132 0 0 .82132 164.48 -230.33)" x2="224.29" y2="415.67"/>
    <linearGradient id="linearGradient3386" x1="360.88" xlink:href="#linearGradient6994" gradientUnits="userSpaceOnUse" y1="431.09" gradientTransform="matrix(.82132 0 0 .82132 164.48 -230.33)" x2="363.75" y2="386.31"/>
    <radialGradient id="radialGradient3410" xlink:href="#linearGradient6653" gradientUnits="userSpaceOnUse" cy="414.13" cx="692.58" gradientTransform="matrix(.22353 -5.5451e-8 6.9546e-8 .73137 703.1 -175.73)" r="109.08"/>
    <linearGradient id="linearGradient3414" x1="641" gradientUnits="userSpaceOnUse" y1="488.24" gradientTransform="matrix(.82132 0 0 .82132 164.48 -230.33)" x2="666.5" y2="488.24">
      <stop id="stop6170" stop-color="#fff" stop-opacity="0" offset="0"/>
      <stop id="stop6172" stop-color="#fdca01" offset="1"/>
    </linearGradient>
    <radialGradient id="radialGradient3417" xlink:href="#linearGradient6653" gradientUnits="userSpaceOnUse" cy="444.14" cx="672.33" gradientTransform="matrix(-1.5154 .37680 -.97033 -3.9024 2138.8 1637.1)" r="11.276"/>
    <radialGradient id="radialGradient3420" xlink:href="#linearGradient5979" gradientUnits="userSpaceOnUse" cy="662.38" cx="735.36" gradientTransform="matrix(2.1804 -.59020 .12406 .45834 -917.07 414.35)" r="78.531"/>
    <radialGradient id="radialGradient3423" xlink:href="#linearGradient5979" gradientUnits="userSpaceOnUse" cy="596.82" cx="677.77" gradientTransform="matrix(1.1886 -.43570 .10068 .27465 -189.99 417.58)" r="78.531"/>
    <radialGradient id="radialGradient3426" xlink:href="#linearGradient5979" gradientUnits="userSpaceOnUse" cy="603.62" cx="731.87" gradientTransform="matrix(.73465 -.21674 .13436 .45542 73.951 158.51)" r="78.531"/>
    <radialGradient id="radialGradient3430" xlink:href="#linearGradient6653" gradientUnits="userSpaceOnUse" cy="458.76" cx="670.3" gradientTransform="matrix(3.1541 .64959 -.83046 4.0323 -935.95 -2157)" r="43.912"/>
    <radialGradient id="radialGradient3437" xlink:href="#linearGradient6653" gradientUnits="userSpaceOnUse" cy="436.95" cx="669.97" gradientTransform="matrix(1.7362 -1.7362 2.8514 2.8514 -1730.8 40.698)" r="11.276"/>
    <radialGradient id="radialGradient3440" xlink:href="#linearGradient6653" gradientUnits="userSpaceOnUse" cy="438.91" cx="683.88" gradientTransform="matrix(4.3205 .0000024571 -.0000017002 2.9909 -2250.7 -1195.5)" r="11.276"/>
    <radialGradient id="radialGradient3443" xlink:href="#linearGradient6653" gradientUnits="userSpaceOnUse" cy="440.88" cx="694.37" gradientTransform="matrix(2.9061 0 0 4.2616 -1283.5 -1753.3)" r="11.276"/>
    <linearGradient id="linearGradient3446" x1="746.39" xlink:href="#linearGradient5979" gradientUnits="userSpaceOnUse" y1="629.16" gradientTransform="matrix(.82132 0 0 .82132 164.48 -230.34)" x2="738.97" y2="585.67"/>
    <radialGradient id="radialGradient3454" xlink:href="#linearGradient6653" gradientUnits="userSpaceOnUse" cy="403.92" cx="743.96" gradientTransform="matrix(1.7421 .46678 -.22307 .83250 -421.54 -588.86)" r="18.188"/>
    <radialGradient id="radialGradient3460" xlink:href="#linearGradient6653" gradientUnits="userSpaceOnUse" cy="384.78" cx="759.13" gradientTransform="matrix(1.9297 -.52665 .37448 1.3721 -772.59 -31.592)" r="109.08"/>
    <radialGradient id="radialGradient3463" xlink:href="#linearGradient6653" gradientUnits="userSpaceOnUse" cy="524.13" cx="694.81" gradientTransform="matrix(2.3214 -.62202 .245 .91435 -1008.4 107.14)" r="74.5"/>
    <linearGradient id="linearGradient3467" x1="698.37" xlink:href="#linearGradient6653" gradientUnits="userSpaceOnUse" y1="369.54" gradientTransform="matrix(.82132 0 0 .82132 164.63 -230.21)" x2="696.86" y2="412.09"/>
    <radialGradient id="radialGradient3473" xlink:href="#linearGradient6653" gradientUnits="userSpaceOnUse" cy="282.17" cx="546.22" gradientTransform="matrix(2.8214 0 0 1.8096 -938.04 -492.29)" r="85.484"/>
    <linearGradient id="linearGradient3477" x1="480.03" xlink:href="#linearGradient5896" gradientUnits="userSpaceOnUse" y1="547.23" gradientTransform="matrix(.82132 0 0 .82132 164.63 -230.21)" x2="711.39" y2="462.82"/>
    <radialGradient id="radialGradient3480" xlink:href="#linearGradient5979" gradientUnits="userSpaceOnUse" cy="622.22" cx="485.42" gradientTransform="matrix(.71573 -.20772 .36961 1.2735 -8.4979 -403.14)" r="83.828"/>
    <linearGradient id="linearGradient3483" x1="-858.5" xlink:href="#linearGradient7563" gradientUnits="userSpaceOnUse" y1="514.43" gradientTransform="matrix(.82132 0 0 .82132 1008.6 -231.36)" x2="-838.75" y2="514.43"/>
    <linearGradient id="linearGradient3494" x1="23.116" xlink:href="#linearGradient4971" gradientUnits="userSpaceOnUse" y1="640.95" gradientTransform="matrix(.82132 0 0 .82132 164.48 -230.33)" x2="27.494" y2="614.26"/>
    <linearGradient id="linearGradient3497" x1="-2.4197" xlink:href="#linearGradient5979" gradientUnits="userSpaceOnUse" y1="671.11" gradientTransform="matrix(.82132 0 0 .82132 164.48 -230.33)" x2="-6.6623" y2="597.57"/>
    <linearGradient id="linearGradient3510" x1="536.6" xlink:href="#linearGradient5979" gradientUnits="userSpaceOnUse" y1="631.95" gradientTransform="matrix(.82132 0 0 .82132 166.01 -231.87)" x2="527.18" y2="690.57"/>
    <linearGradient id="linearGradient3516" x1="531.39" xlink:href="#linearGradient16283" gradientUnits="userSpaceOnUse" y1="390.62" gradientTransform="matrix(.82132 0 0 .82132 164.48 -230.33)" x2="526.56" y2="348.48"/>
    <linearGradient id="linearGradient3521" x1="15.064" xlink:href="#linearGradient5896" gradientUnits="userSpaceOnUse" y1="530.64" gradientTransform="matrix(.82132 0 0 .82132 164.48 -230.33)" x2="364.31" y2="530.64"/>
    <linearGradient id="linearGradient3524" x1="21.762" xlink:href="#linearGradient5979" gradientUnits="userSpaceOnUse" y1="493.84" gradientTransform="matrix(.82132 0 0 .82132 164.48 -230.33)" x2="213.55" y2="389.54"/>
    <radialGradient id="radialGradient3527" xlink:href="#linearGradient6653" gradientUnits="userSpaceOnUse" cy="843.38" cx="144.49" gradientTransform="matrix(1.9598 -.16225 .037119 .44835 -40.827 -123.55)" r="329.03"/>
    <linearGradient id="linearGradient3531" x1="180.69" xlink:href="#linearGradient6653" gradientUnits="userSpaceOnUse" y1="654.62" gradientTransform="matrix(.82132 0 0 .82132 164.48 -230.33)" x2="181.71" y2="627.38"/>
    <linearGradient id="linearGradient3534" x1="174.99" xlink:href="#linearGradient5979" gradientUnits="userSpaceOnUse" y1="720.53" gradientTransform="matrix(.82132 0 0 .82132 164.48 -230.33)" x2="198.08" y2="545.88"/>
    <linearGradient id="linearGradient3537" x1="138.69" xlink:href="#linearGradient6653" gradientUnits="userSpaceOnUse" y1="605.62" gradientTransform="matrix(.82132 0 0 .82132 164.48 -230.33)" x2="140.71" y2="660.5"/>
    <linearGradient id="linearGradient3540" x1="718.94" xlink:href="#linearGradient6653" gradientUnits="userSpaceOnUse" y1="307.84" gradientTransform="matrix(.82132 0 0 .82132 164.48 -230.33)" x2="647.59" y2="482.91"/>
    <radialGradient id="radialGradient3544" xlink:href="#linearGradient7359" spreadMethod="reflect" gradientUnits="userSpaceOnUse" cy="586.53" cx="623.78" gradientTransform="matrix(.58074 .033110 -.0040935 1.0626 -72.143 -399.83)" r="71.858"/>
  </defs>
  <g id="g16800" transform="matrix(.84393 0 0 .84393 38.704 -162.12)" fill="url(#radialGradient3034)" fill-rule="evenodd">
    <path id="path16796" style="color:#000000" transform="matrix(1.292 0 -.70601 .51368 200.73 311.6)" d="m964.6 440.62c0.04 113.75-189.82 205.96-424.04 205.96s-424.08-92.21-424.05-205.96c-0.03-113.74 189.83-205.95 424.05-205.95s424.08 92.21 424.04 205.95z"/>
    <path id="path16653" style="color:#000000" transform="matrix(1.292 0 -.70601 .51368 138.51 311.6)" d="m964.6 440.62c0.04 113.75-189.82 205.96-424.04 205.96s-424.08-92.21-424.05-205.96c-0.03-113.74 189.83-205.95 424.05-205.95s424.08 92.21 424.04 205.95z"/>
  </g>
  <path id="path7345" style="color:#000000" fill-rule="evenodd" d="m676.06 137.72c-1.88 0.08-3.79 0.45-5.72 1.16-24.82 9.09-44.95 68.09-44.95 131.69 0 14.3 1.02 27.63 2.88 39.58l83.36-25.54c2.36-14.85 3.67-30.74 3.67-46.94 0-58.64-17.13-100.83-39.24-99.95z"/>
  <path id="path11311" style="color:#000000" fill-rule="evenodd" d="m852.98 136.88c-14.86 0.51-20.54 29.71-25.18 66.32-2.12 16.68-4.34 34.61-4.54 49.23l0.3-2.26 36.45-62.96 1.33 0.44c2.25-29.17-0.47-51.04-8.36-50.77z"/>
  <g id="g12225" transform="matrix(.35256 0 .015155 .56395 468.75 -118.35)" fill-rule="evenodd">
    <path id="path12100" style="color:#000000" fill="url(#radialGradient3038)" d="m1049 478.84l-142.98 1.13c-24.18 0-49.4 51.54-52.04 111.34-2.64 59.81 14.82 104.32 39 104.31l146.42-0.09c24.2 0 46-48.54 48.6-108.34 2.7-59.81-14.8-108.35-39-108.35z"/>
    <path id="path12102" opacity=".14523" style="color:#000000" fill="url(#radialGradient3040)" d="m1049 478.84l-143.14 1.13c-24.17 0-49.39 51.54-52.04 111.34-2.64 59.81 14.83 104.32 39 104.31l146.58-0.09c24.2 0 46-48.54 48.6-108.34 2.7-59.81-14.8-108.35-39-108.35z"/>
    <path id="path12104" style="color:#000000" fill="url(#radialGradient3042)" d="m1049 478.84l-142.98 1.13c-24.18 0-49.4 51.54-52.04 111.34-2.64 59.81 14.82 104.32 39 104.31l146.42-0.09c24.2 0 46-48.54 48.6-108.34 2.7-59.81-14.8-108.35-39-108.35z"/>
  </g>
  <g id="g12205" transform="matrix(.35256 0 .011065 .56395 471.78 -118.35)" fill-rule="evenodd">
    <path id="path12106" style="color:#000000" fill="url(#linearGradient3044)" d="m1055.7 493.12c-0.8-0.01-1.5 0.06-2.4 0.22-18.8 3.79-32.4 50.16-32.1 101.41 0.4 50.79 12.9 87.81 30.1 83.63 19.1-4.63 32.1-49.62 32.1-100.41 0.6-48.41-11.4-84.59-27.7-84.85z"/>
    <path id="path12108" style="color:#000000" fill="url(#linearGradient3046)" d="m1063.6 508.88c5.8-0.37 8.7 13.53 8.7 27.74 0 1.97 0 3.9-0.2 5.76-6.7 5.84-13.3 12.58-18.7 16.48-0.4-3.62 0.1-10.19 0.2-19.48 0.1-14.15 1.5-29.98 10-30.5z"/>
    <path id="path12110" style="color:#000000" fill="url(#linearGradient3048)" d="m1053.4 558.91l13.6-11.93 4.7-0.9-16.6 16.56c-0.7-0.86-1.3-2.04-1.7-3.73z"/>
    <path id="path12112" style="color:#000000" fill="url(#linearGradient3050)" d="m1063.6 508.88c-4 0.24-6.4 3.9-7.9 9.18 5.3-0.02 1.8 11.1 2.9 11.19 5.3 0.43 9.2 3.98 9.2 13.37 0 1.43-0.2 2.8-0.6 4.1-0.4 1.25 1.7 0.61 3.8 0l-15.9 15.84c1.7 1.5 3.7 2.3 5.7 2.06 6.6-0.74 10.3-8.03 11-16.24 0-0.64 0-1.26-0.1-1.88v-0.03c0.4-3.09 0.6-6.4 0.6-9.85 0-14.21-2.9-28.11-8.7-27.74z"/>
    <path id="path12114" style="color:#000000" transform="matrix(.99849 0 0 1.1039 426.44 -60.056)" fill="url(#radialGradient3052)" d="m632 584.86c0 12.15-3.69 22-8.25 22s-8.25-9.85-8.25-22 3.69-22 8.25-22 8.25 9.85 8.25 22z"/>
    <path id="path12116" style="color:#000000" fill="url(#linearGradient3054)" d="m1071.6 569c-4.2 0.2-7.6 5.41-9.5 13.12 2.7-3.38 6.3-6.92 9.2-8.65 2.2-1.36 2.6 5.78-5.2 8.22 2 5.14 2.9 29.37-1.5 29.62-0.8 0.04-1.6-1.15-2.4-2.9 1.8 8.51 5.1 14.25 9 14.25 5.7 0 10.1-11.62 10.1-26.44s-3.6-26.82-9.1-27.22c-0.2-0.02-0.4-0.01-0.6 0z"/>
    <path id="path12118" style="color:#000000" fill="url(#linearGradient3056)" d="m1052.9 613.56c-2-0.01-3.5 1.81-4.6 4.82 3.1 4.34 5.7 14.99 8.5 20.59 5.9 12.13-0.5 19.02-10.2 17.59-0.3-0.04-0.6-0.14-0.9-0.28 0.8 8.1 3.2 13.44 9.1 14.1 4.3 0.47 7.3-8.41 8.5-28.5 1.2-19.62-4.4-27.4-9.8-28.26-0.2-0.02-0.4-0.06-0.6-0.06z"/>
    <path id="path12120" style="color:#000000" fill="url(#linearGradient3058)" d="m1034.4 583.19c-2.8-0.07-5.8 3.68-8.2 9.25 0.1-0.07 0.2-0.17 0.4-0.22 8-4.24 7.7 13.31 7.7 23.4 0 6.66-1 17.46-2.9 24.07 0.7 0.32 1.4 0.48 2.1 0.43 7-0.45 11.2-8.98 9.1-28.9-1.4-14.09-2-27.88-8.2-28.03z"/>
    <path id="path12122" style="color:#000000" fill="url(#linearGradient3060)" d="m1039.6 515.53c-0.2 0.02-0.4 0.05-0.6 0.09-1.2 0.23-2.2 1.06-3.1 2.35 7.6 0.37 3.7 13.98 3 25.25-0.8 12.72-2.6 20.68-5.5 23.06 1.6 3.43 3.5 5.6 5.2 6 4.1 0.96 9.1-13.88 9.1-29.47 0-15.1-1.8-27.74-8.1-27.28z"/>
    <path id="path12124" style="color:#000000" fill="url(#linearGradient3062)" d="m1071.8 573.31c-0.1 0.02-0.3 0.07-0.4 0.16-2.9 1.73-6.5 5.27-9.1 8.65-1 3.85-1.6 8.34-1.6 13.13 0 4.82 0.6 9.3 1.6 13.16 0.8 1.75 1.7 2.94 2.4 2.9 4.4-0.25 3.5-24.48 1.6-29.62 7.3-2.28 7.4-8.7 5.5-8.38z"/>
    <path id="path12126" style="color:#000000" fill="url(#linearGradient3064)" d="m1048.3 618.38c-1.9 5.15-2.7 13.85-2.9 23.12-0.2 5.53-0.2 10.52 0.3 14.78 0.3 0.14 0.6 0.24 0.9 0.28 9.7 1.43 16.1-5.46 10.2-17.59-2.8-5.6-5.4-16.25-8.5-20.59z"/>
    <path id="path12128" style="color:#000000" fill="url(#linearGradient3066)" d="m1028.6 591.56c-0.6 0.04-1.3 0.26-2 0.66-0.2 0.05-0.3 0.15-0.4 0.22-2.2 5.34-3.7 12.36-3.7 19.31 0 12.57 3.6 25.45 8.9 27.94 1.9-6.61 2.9-17.41 2.9-24.07 0-9.15 0.2-24.43-5.7-24.06z"/>
    <path id="path12130" style="color:#000000" fill="url(#linearGradient3068)" d="m1035.9 517.97c-3.1 4.32-5 14.02-6 25.53-0.8 9.38 1 17.55 3.5 22.78 2.9-2.38 4.7-10.34 5.5-23.06 0.7-11.27 4.6-24.88-3-25.25z"/>
    <path id="path12132" opacity=".3" style="color:#000000" fill="url(#linearGradient3070)" d="m1046.8 527.78c-1.3 2.81-2.6 8.53-3.3 15.13-1 9.36-0.3 16.96 1.4 16.97 0.3 0 0.7-0.27 1-0.72 1.1-4.82 1.8-10.54 1.8-16.35 0-5.51-0.3-10.69-0.9-15.03z"/>
    <path id="path12134" opacity=".3" style="color:#000000" fill="url(#linearGradient3072)" d="m1039.1 609.12c-1.8 0-2.3 12.77-1 28.5v0.6c2.8-2.38 4.6-7.08 5-14.47-1.3-8.69-2.8-14.63-4-14.63z"/>
    <path id="path12136" opacity=".4" style="color:#000000" fill="url(#linearGradient3074)" d="m1055.8 616.38c-3.3 0 0 8.98 7.7 21.68 0.2-9.86-1.6-16.28-4.1-20.06-1.5-1.06-2.7-1.62-3.6-1.62z"/>
    <path id="path12138" style="color:#000000" fill="url(#linearGradient3076)" d="m1042.3 572.53c-0.8 3.77-1.3 8.23-1.3 13.03 0 5.37 0.6 10.32 1.6 14.35 2.2-2.08 3.7-7.33 3.7-13.53 0-6.48-1.6-11.99-4-13.85z"/>
    <path id="path12140" style="color:#000000" fill="#fff" d="m1055.6 494.16c-11.8 2.79-16.5 15.96-20.7 26.09-2.8 8.18-4.9 16.52-6.6 24.97 1.6-7.6 3.6-15.1 6.1-22.47 4.2-10.13 8.9-23.3 20.7-26.09 8.5-0.38 13.3 8.68 16.4 15.28 11.3 27.79 11.2 58.76 9.7 88.4-0.9 9.84-2 19.88-3.9 29.69 2.2-10.61 3.4-21.51 4.4-32.19 1.5-29.64 1.6-60.61-9.7-88.4-3.1-6.6-7.9-15.66-16.4-15.28z"/>
  </g>
  <g id="g12182" transform="matrix(.82132 0 0 .82132 164.48 -230.33)" fill-rule="evenodd">
    <path id="path4995" style="color:#000000" fill="url(#radialGradient3078)" d="m617.66 478.84l-52.12 1.13c-24.18 0-49.4 51.54-52.04 111.34-2.64 59.81 14.82 104.32 39 104.31l55.59-0.09c24.18 0 45.95-48.54 48.6-108.34 2.64-59.81-14.86-108.35-39.03-108.35z"/>
    <path id="path11299" opacity=".14523" style="color:#000000" fill="url(#radialGradient3080)" d="m617.66 478.84l-52.12 1.13c-24.18 0-49.4 51.54-52.04 111.34-2.64 59.81 14.82 104.32 39 104.31l55.59-0.09c24.18 0 45.95-48.54 48.6-108.34 2.64-59.81-14.86-108.35-39.03-108.35z"/>
    <path id="path11295" style="color:#000000" fill="url(#radialGradient3082)" d="m617.66 478.84l-52.12 1.13c-24.18 0-49.4 51.54-52.04 111.34-2.64 59.81 14.82 104.32 39 104.31l55.59-0.09c24.18 0 45.95-48.54 48.6-108.34 2.64-59.81-14.86-108.35-39.03-108.35z"/>
    <path id="path16305" style="color:#000000" fill="url(#linearGradient3084)" d="m622.41 495.12c-0.8-0.01-1.59 0.06-2.41 0.22-18.85 3.79-32.48 50.16-32.09 101.41 0.38 50.79 12.81 87.81 30.09 83.63 19.1-4.63 32.11-49.62 32.09-100.41 0.53-48.41-11.47-84.59-27.68-84.85z"/>
    <path id="path7020" style="color:#000000" fill="url(#linearGradient3086)" d="m624.41 493.12c-0.8-0.01-1.59 0.06-2.41 0.22-18.85 3.79-32.48 50.16-32.09 101.41 0.38 50.79 12.81 87.81 30.09 83.63 19.1-4.63 32.11-49.62 32.09-100.41 0.53-48.41-11.47-84.59-27.68-84.85z"/>
    <path id="path5034" style="color:#000000" fill="url(#linearGradient3088)" d="m632.25 508.88c5.78-0.37 8.75 13.53 8.75 27.74 0 1.97-0.06 3.9-0.19 5.76-6.7 5.84-13.36 12.58-18.72 16.48-0.39-3.62 0.1-10.19 0.16-19.48 0.08-14.15 1.56-29.98 10-30.5z"/>
    <path id="rect6006" style="color:#000000" fill="url(#linearGradient3090)" d="m622.07 558.91l13.64-11.93 4.66-0.9-16.62 16.56c-0.71-0.86-1.3-2.04-1.68-3.73z"/>
    <path id="path5020" style="color:#000000" fill="url(#linearGradient3092)" d="m632.25 508.88c-3.99 0.24-6.41 3.9-7.87 9.18 5.32-0.02 1.77 11.1 2.84 11.19 5.35 0.43 9.28 3.98 9.28 13.37 0 1.43-0.24 2.8-0.66 4.1-0.4 1.25 1.72 0.61 3.82 0l-15.85 15.84c1.67 1.5 3.62 2.3 5.69 2.06 6.57-0.74 10.25-8.03 11-16.24 0-0.64-0.04-1.26-0.09-1.88 0-0.01-0.01-0.02 0-0.03 0.39-3.09 0.59-6.4 0.59-9.85 0-14.21-2.97-28.11-8.75-27.74z"/>
    <path id="path7002" style="color:#000000" transform="matrix(.99849 0 0 1.1039 -4.891 -60.056)" fill="url(#radialGradient3052)" d="m632 584.86c0 12.15-3.69 22-8.25 22s-8.25-9.85-8.25-22 3.69-22 8.25-22 8.25 9.85 8.25 22z"/>
    <path id="path7052" style="color:#000000" fill="url(#linearGradient3096)" d="m640.22 569c-4.12 0.2-7.59 5.41-9.41 13.12 2.65-3.38 6.28-6.92 9.13-8.65 2.23-1.36 2.64 5.78-5.13 8.22 1.91 5.14 2.86 29.37-1.59 29.62-0.72 0.04-1.57-1.15-2.38-2.9 1.78 8.51 5.1 14.25 9.07 14.25 5.65 0 10.06-11.62 10.06-26.44s-3.58-26.82-9.13-27.22c-0.2-0.02-0.42-0.01-0.62 0z"/>
    <path id="path7073" style="color:#000000" fill="url(#linearGradient3098)" d="m621.59 613.56c-2.02-0.01-3.54 1.81-4.65 4.82 3.14 4.34 5.75 14.99 8.5 20.59 5.94 12.13-0.49 19.02-10.16 17.59-0.3-0.04-0.62-0.14-0.94-0.28 0.82 8.1 3.19 13.44 9.16 14.1 4.31 0.47 7.28-8.41 8.5-28.5 1.19-19.62-4.42-27.4-9.88-28.26-0.18-0.02-0.35-0.06-0.53-0.06z"/>
    <path id="path7078" style="color:#000000" fill="url(#linearGradient3100)" d="m603.06 583.19c-2.82-0.07-5.85 3.68-8.15 9.25 0.1-0.07 0.2-0.17 0.31-0.22 8.02-4.24 7.78 13.31 7.78 23.4 0 6.66-0.99 17.46-2.94 24.07 0.69 0.32 1.39 0.48 2.13 0.43 6.94-0.45 11.15-8.98 9.09-28.9-1.45-14.09-1.97-27.88-8.22-28.03z"/>
    <path id="path7081" style="color:#000000" fill="url(#linearGradient3102)" d="m608.25 515.53c-0.2 0.02-0.41 0.05-0.63 0.09-1.14 0.23-2.17 1.06-3.09 2.35 7.68 0.37 3.72 13.98 3.03 25.25-0.77 12.72-2.57 20.68-5.53 23.06 1.63 3.43 3.54 5.6 5.25 6 4.08 0.96 9.06-13.88 9.06-29.47 0-15.1-1.78-27.74-8.09-27.28z"/>
    <path id="path7125" style="color:#000000" fill="url(#linearGradient3104)" d="m640.47 573.31c-0.13 0.02-0.27 0.07-0.41 0.16-2.85 1.73-6.47 5.27-9.12 8.65-1 3.85-1.56 8.34-1.56 13.13 0 4.82 0.59 9.3 1.59 13.16 0.81 1.75 1.66 2.94 2.37 2.9 4.46-0.25 3.5-24.48 1.6-29.62 7.28-2.28 7.39-8.7 5.53-8.38z"/>
    <path id="path7151" style="color:#000000" fill="url(#linearGradient3106)" d="m616.94 618.38c-1.91 5.15-2.68 13.85-2.91 23.12-0.14 5.53-0.12 10.52 0.31 14.78 0.32 0.14 0.64 0.24 0.94 0.28 9.67 1.43 16.1-5.46 10.16-17.59-2.75-5.6-5.36-16.25-8.5-20.59z"/>
    <path id="path7164" style="color:#000000" fill="url(#linearGradient3108)" d="m597.25 591.56c-0.61 0.04-1.28 0.26-2.03 0.66-0.11 0.05-0.21 0.15-0.31 0.22-2.22 5.34-3.75 12.36-3.75 19.31 0 12.57 3.62 25.45 8.9 27.94 1.95-6.61 2.94-17.41 2.94-24.07 0-9.15 0.18-24.43-5.75-24.06z"/>
    <path id="path7330" style="color:#000000" fill="url(#linearGradient3110)" d="m604.53 517.97c-3.08 4.32-4.98 14.02-5.97 25.53-0.8 9.38 0.99 17.55 3.47 22.78 2.96-2.38 4.76-10.34 5.53-23.06 0.69-11.27 4.65-24.88-3.03-25.25z"/>
    <path id="path9040" opacity=".3" style="color:#000000" fill="url(#linearGradient3112)" d="m615.5 527.78c-1.32 2.81-2.63 8.53-3.31 15.13-0.98 9.36-0.35 16.96 1.4 16.97 0.32 0 0.67-0.27 1-0.72 1.08-4.82 1.75-10.54 1.75-16.35 0-5.51-0.23-10.69-0.84-15.03z"/>
    <path id="path10036" opacity=".3" style="color:#000000" fill="url(#linearGradient3114)" d="m607.75 609.12c-1.79 0-2.24 12.77-1 28.5 0.02 0.21 0.05 0.4 0.06 0.6 2.72-2.38 4.51-7.08 4.91-14.47-1.24-8.69-2.75-14.63-3.97-14.63z"/>
    <path id="path10049" opacity=".4" style="color:#000000" fill="url(#linearGradient3116)" d="m624.5 616.38c-3.37 0 0 8.98 7.66 21.68 0.16-9.86-1.58-16.28-4.07-20.06-1.5-1.06-2.74-1.62-3.59-1.62z"/>
    <path id="path10281" style="color:#000000" fill="url(#linearGradient3118)" d="m611 572.53c-0.82 3.77-1.31 8.23-1.31 13.03 0 5.37 0.59 10.32 1.59 14.35 2.17-2.08 3.72-7.33 3.72-13.53 0-6.48-1.68-11.99-4-13.85z"/>
    <path id="path10294" style="color:#000000" fill="#fff" d="m624.31 494.16c-11.89 2.79-16.59 15.96-20.78 26.09-2.72 8.18-4.9 16.52-6.53 24.97 1.56-7.6 3.57-15.1 6.03-22.47 4.19-10.13 8.89-23.3 20.78-26.09 8.49-0.38 13.24 8.68 16.38 15.28 11.27 27.79 11.22 58.76 9.65 88.4-0.91 9.84-1.99 19.88-3.87 29.69 2.2-10.61 3.38-21.51 4.37-32.19 1.57-29.64 1.62-60.61-9.65-88.4-3.14-6.6-7.89-15.66-16.38-15.28z"/>
  </g>
  <path id="path7367" style="color:#000000" fill-rule="evenodd" fill="url(#radialGradient3544)" d="m279.94 161.37l-41.76-1.53c-19.38-1.11-39.74 36.86-42.03 82.12s11.57 79.84 30.95 80.94l44.54 2.47c19.38 1.11 36.97-34.74 39.26-80s-11.59-82.9-30.96-84z"/>
  <path id="rect5741" style="color:#000000" fill-rule="evenodd" fill="#fb0000" d="m599.37 34.007c-21.92-0.066-45.91 0.401-69.48 1.925-75.05 4.851-126.16 7.308-245.65 77.668-80.5-0.26-131.31 71.29-147.15 103.48-1.18 17.24 0.78 35.53 6.24 54.98-0.15 11.7 4.32 19.69 7.88 28.41 16.48 3.01 32.39 4.9 48.1 6.34l5.28-0.69c63.4 6.75 128.76 10.21 194.48 13.09l12.47 2.75c32.74 0.91 65.29 2.79 97.25 1.54 52.18-2.05 83.51-4.77 112.7-9.81 2.12-0.36 7.83-17.09 7.83-17.09 3.14-42.19 17.14-149.33 47.3-150.51 27.8-1.09 33.98 81.02 20.72 143.12 42.01-13.26 82.97-29.72 126.38-38.81 0 0 8.92-71.1 13.09-86.32 0.8-2.94 6.16-22.09 11.65-24.4 8.51-3.59 12.95-1.65 11.45 47.61l2.85 2.41c-2.35-22.08 5.8-25.84-7.37-61.42-8.74-23.6-23.75-32.597-27.18-33.136-10.7-1.681-45.31-3.377-53.77-3.773-1.46-2.691-4.7-5.239-8.91-6.648-0.92-0.308-1.84-0.547-2.74-0.718-30.22-26.046-58.54-44.652-75.18-46.816-1.8-0.234-40.03-3.037-88.24-3.182z"/>
  <path id="rect12277" style="color:#000000" fill-rule="evenodd" fill="url(#linearGradient3540)" d="m591.05 34.007c-19.6 0.066-40.54 0.592-61.16 1.925-75.05 4.851-126.16 7.308-245.65 77.668-1.35-0.01-2.68 0.01-4.01 0.05 3.94 0.26 7.84 0.52 12.01 0.9l19.33-1.47c106.57-1.76 215.41-8.06 319.7-5.28 9.18 0.58 16.44 0.37 29.9 2.74l71.43-33.876 30.01 7.187c-30.15-25.964-58.39-44.502-75-46.662-1.8-0.234-40.03-3.037-88.24-3.182-2.74-0.009-5.52-0.01-8.32 0z"/>
  <path id="path11867" style="color:#000000" fill-rule="evenodd" fill="url(#linearGradient3537)" d="m223.28 286.31c3.1 5.18 11.99 4.57 19.22 5.62 5.45 2.41 4.02 2.44-1.36 3.77 52.54 3.49 104.6 6.96 156.36 10.45l5.16 6c-2.7-6.53-3.41-11.88-2.23-16.09l0.07-0.05c-59.07-2.28-118.15-4.73-177.22-9.7z"/>
  <path id="rect8273" style="color:#000000" fill-rule="evenodd" fill="url(#linearGradient3534)" d="m137.04 218.01c-1.05 16.96 0.93 34.95 6.29 54.05-0.15 11.7 4.32 19.69 7.88 28.41 16.48 3.01 32.39 4.9 48.1 6.34l5.28-0.69c63.4 6.75 128.76 10.21 194.48 13.09l12.47 2.75c32.74 0.91 65.29 2.79 97.25 1.54 13.76-0.54 26.03-1.14 37.22-1.8l4.41-15.94c-9.54-25.88-20.12-51.59-33.98-76.79l-0.57 0.54c-150.63 4.4-312.9-1.39-378.83-11.5zm19.22 66.94l55.85 0.41c62.97 5.65 125.94 8.25 188.91 10.67l134.7-0.41c-11 10.64-23.66 12.94-35.63 18.69-100.41 0.23-193.01-5.04-293.42-13.55l-54.36-8.32 3.95-7.49z"/>
  <path id="path4913" style="color:#000000" fill-rule="evenodd" fill="url(#linearGradient3531)" d="m156.26 284.95l-3.95 7.49 54.36 8.32c100.41 8.51 193.01 13.78 293.42 13.55 11.97-5.75 24.63-8.05 35.63-18.69l-134.7 0.41c-0.17 0-0.34-0.01-0.52-0.02l-0.07 0.05c-1.18 4.21-0.47 9.56 2.23 16.09l-5.16-6c-51.76-3.49-103.82-6.96-156.36-10.45 5.38-1.33 6.81-1.36 1.36-3.77-7.23-1.05-16.12-0.44-19.22-5.62-3.72-0.32-7.44-0.62-11.17-0.95l-55.85-0.41z"/>
  <path id="path6199" opacity=".7" style="color:#000000" d="m198.97 187.4c32.49-29.14 69.52-49.42 117.45-69.19" stroke="#986601" stroke-width=".82132" fill="none"/>
  <path id="rect6647" style="color:#000000" fill-rule="evenodd" fill="url(#radialGradient3527)" d="m604.64 108c-33.29 0.05-68.53 3.9-101.43 8.33l-191.12 2.57c-10.91-3.22-20.91-4.59-30.49-5.14-79.09 1.17-129.05 71.59-144.73 103.46-0.02 0.31-0.03 0.62-0.05 0.93 65.93 10.11 228.2 15.9 378.83 11.5 46.23-50.36 98.86-114.45 161.65-114.99-23.42-7.2-46.76-6.7-72.66-6.66z"/>
  <path id="path6193" opacity=".5" style="color:#000000" d="m198.15 187.61c31.47-28.8 68.09-49.43 116.63-69.4" stroke="url(#linearGradient3524)" stroke-width=".82132" fill="none"/>
  <path id="path4925" opacity=".86" style="color:#000000" d="m177.26 201.98c86.76 7.93 190.1 6.93 286.02 5.34" stroke="url(#linearGradient3521)" stroke-width=".82132" fill="none"/>
  <path id="path10364" d="m659.33 110.35c5.57-19.921 12.8-66.666 30.9-66.605 21.5 0.073 39.36 15.887 70.3 39.508-9.96 0.131-35.28-8.752-43.26 5.63-4.42 7.968-3.38 19.297-3.02 28.197-7.68 0.91-22.19 3.9-25.05 2.2-3.75-2.22-21.98-8.85-29.87-8.93z"/>
  <path id="path6785" d="m560.74 37.677c-51.35 0.579-98.38 4.112-143.33 15.21-25.04 6.181-81.06 33.823-125.96 58.373-9.63 5.18 11.46 5.4 17.3 7.14 9.97 1.31 27.56-0.26 45.99-0.59 44.36-0.81 98.28-0.76 145.07-0.52 48.83-9.47 85.51-9.23 135.93-9.08 7.33-22.829 17.24-46.305 27.92-67.119-16.89-2.438-34.11-3.331-51.36-3.594-17.24-0.264-34.53 0.101-51.56 0.18z"/>
  <path id="rect16291" opacity=".8" style="color:#000000" d="m557.07 61.656h87.7l-8.13 23.521-70.86 2.033-8.71-25.554z" fill-rule="evenodd" fill="url(#linearGradient3516)"/>
  <path id="path8247" d="m654.65 70.273c-1.22-0.05-2.52 0.257-3.7 0.976-9.93 0.279-19.88 0.523-29.64 2.592-31.04 5.967-60.51 17.733-90.71 26.719-3.63 1.6-10.03 2.35-12.04 4.7 5.38-0.86 8.1 3.14 12.5 5.28 1.27 0.51 2.57 0.91 3.9 1.21 7.88 0.58-10.03-2.49-1.87-4.23 15.64-4.98 31.32-9.805 46.92-14.917 18.35-6.44 37.27-11.608 56.67-13.578 3.89 0.344 9.92-2.156 12.52 0.745-2.56 9.449-6.2 18.568-9.39 27.82-7.39 0.3-14.78 0.6-22.17 0.9 7.4-0.03 14.87 0.6 22.22-0.31 3.43-6.17 4.95-13.217 8.01-19.581 1.38-2.903 5-12.003 8.37-7.674-3.96 15.825-5.37 21.615-5.37 22.075 0.39-0.42 6.96-23.913 8.7-24.796 1.84-4.502-1.26-7.78-4.92-7.931zm-157.67 41.247c-1.39 0.08-2.84 0.11-4.11 0.74-0.79 0.37 0.02 1.14 0.41 1.49 0.82 0.64 1.71 1.28 2.18 2.24 0.36 0.47 0.01 1.92 0.98 1.51 1-0.21 2.03 0.06 3 0.31 0.65 0.19 1.3 0.39 1.95 0.56 0.69 0.24 1.44 0.34 2.11-0.02 2.26-0.93 4.39-2.16 6.41-3.52 0.48-0.4 1.21-0.71 1.36-1.33-0.76-0.29-1.56-0.47-2.36-0.67-3.9-0.89-7.93-1.39-11.93-1.31zm142.45 4.05c-1.98 0.21-10.89 3.12-15.3 4.68-43.73 0.67-87.94 3.73-129.95 16.7-16.47 8.97-5.09-4.29 1.9-11.57 0.09-7.74-13.11 3.44-14.35 7.83-15.07 5.77-33.44 4.49-49.74 7.83-78.68 13.68-159.18 21.97-234.21 51.02-14.15 5.01-25.36 11.89-36.67 21.69-1.4 1.56 3.65 1.14 2.72 0.38 3.57-5.08 31.7-11.24 21.79-11.24 8.51-6.26 26.14-8.82 37.99-13.7 80.51-23.78 164.18-33.34 246.93-45.92 8.67 0.64 11.86-9.22 18.07-13.53-1.21 5.49-20.05 27.27-24.95 40.89 8.12-9.66 16.56-28.78 34.11-29.39 32.58-9.33 66.3-15.52 100.18-17.02 11.77-1.39 24.52 1.24 35.09-5.21 6.28-2.71 7.57-3.56 6.39-3.44zm10.01 1.78c-3.67 1.07-6.43 1.57-12.35 3.59-3.06 1.04-7.15 2.91-6.54 4.16 2.47 0.47 5.86-2.05 7.39-2.57 3.61-1.02 9.38-3.93 11.5-5.18z" fill="#fff"/>
  <path id="rect8270" style="color:#000000" fill-rule="evenodd" fill="#fff" d="m197.87 244.78c69.42 7.37 188.62 10.74 211.01 4.82l-1.25 10.14c-66.64-1.71-133.23-3.36-202.86-8.06l-6.9-6.9z"/>
  <path id="rect8267" style="color:#000000" fill-rule="evenodd" fill="#666" d="m140.83 224.83c27.46 7.8 66.05 18.74 74.83 26.57-0.19 11.1-0.23 22.44 0 33.9-3.57 3.49-6.9 6.93-11.86 10.78-19.57 0.23-36.95-1.74-53.28-4.75-3.37-5.54-3.84-12.36-4-19.32-5.25-15.49-5.36-31.34-5.69-47.18z"/>
  <path id="rect8294" style="color:#000000" fill-rule="evenodd" fill="url(#linearGradient3510)" d="m628.96 297.63c-25.87 3.98-52.07 6.66-78.67 7.77 0.05 0.12 0.09 0.24 0.13 0.36l-4.41 15.94c31.26-1.85 54-4.3 75.48-8.01 1.92-0.33 6.54-13.39 7.47-16.06zm-83.29 24.1c-0.83 0.05-1.71 0.08-2.56 0.13v0.02c0.88-0.05 1.69-0.1 2.56-0.15z"/>
  <path id="path8237" style="color:#000000" fill-rule="evenodd" fill="url(#pattern3507)" d="m140.83 224.83c27.46 7.8 66.05 18.74 74.83 26.57-0.19 11.1-0.23 22.44 0 33.9-3.57 3.49-6.9 6.93-11.86 10.78-19.57 0.23-36.95-1.74-53.28-4.75-3.37-5.54-3.84-12.36-4-19.32-5.25-15.49-5.36-31.34-5.69-47.18z"/>
  <g id="g9291" transform="matrix(.82132 0 0 .82132 164.48 -230.33)">
    <path id="rect8264" style="color:#000000" fill-rule="evenodd" fill="#666" d="m274.64 590.14c1-3.98 141.45-24.39 147.77-21.71 3.62 1.54 31.21 67.42 30.59 71.2-0.34 2.03-31 17.24-41.32 17.63-10.01 0.37-100.05-1.81-105.05-2.1-12.42-0.74-15.67-5.89-18.91-14.13-1.87-4.72-13.59-48.85-13.08-50.89z"/>
    <path id="path5943" style="color:#000000" fill="none" d="m274.64 590.14c1-3.98 141.45-24.39 147.77-21.71 3.62 1.54 31.21 67.42 30.59 71.2-0.34 2.03-31 17.24-41.32 17.63-10.01 0.37-100.05-1.81-105.05-2.1-12.42-0.74-15.67-5.89-18.91-14.13-1.87-4.72-13.59-48.85-13.08-50.89z"/>
    <path id="path8235" style="color:#000000" fill-rule="evenodd" fill="url(#pattern9238)" d="m274.64 590.14c1-3.98 141.45-24.39 147.77-21.71 3.62 1.54 31.21 67.42 30.59 71.2-0.34 2.03-31 17.24-41.32 17.63-10.01 0.37-100.05-1.81-105.05-2.1-12.42-0.74-15.67-5.89-18.91-14.13-1.87-4.72-13.59-48.85-13.08-50.89z"/>
    <path id="path9240" style="color:#000000" fill-rule="evenodd" fill="url(#linearGradient3140)" d="m274.64 590.14c1-3.98 141.45-24.39 147.77-21.71 3.62 1.54 31.21 67.42 30.59 71.2-0.34 2.03-31 17.24-41.32 17.63-10.01 0.37-100.05-1.81-105.05-2.1-12.42-0.74-15.67-5.89-18.91-14.13-1.87-4.72-13.59-48.85-13.08-50.89z"/>
    <path id="rect8239" opacity=".6" style="color:#000000" d="m421.09 568.25c-3.95 25.21-8.22 49.14-8.53 88.94 11.09-1.15 40.11-15.59 40.44-17.57 0.63-3.78-26.97-69.64-30.59-71.18-0.24-0.1-0.72-0.15-1.32-0.19z" fill-rule="evenodd" fill="url(#linearGradient3142)"/>
    <path id="path9287" style="color:#000000" fill-rule="evenodd" fill="url(#linearGradient3144)" d="m274.64 590.14c1-3.98 141.45-24.39 147.77-21.71 3.62 1.54 31.21 67.42 30.59 71.2-0.34 2.03-31 17.24-41.32 17.63-10.01 0.37-100.05-1.81-105.05-2.1-12.42-0.74-15.67-5.89-18.91-14.13-1.87-4.72-13.59-48.85-13.08-50.89z"/>
  </g>
  <path id="path9299" opacity=".9" style="color:#000000" d="m140.84 224.84c0.34 15.83 0.42 31.68 5.67 47.17 0.16 6.96 0.64 13.79 4 19.33 16.33 3.01 33.71 4.98 53.29 4.75 0.57-0.45 1.13-0.9 1.67-1.34-2.87-16.05-3.26-32.72-1.75-49.87-15.89-6.7-42.45-14.24-62.88-20.04z" fill-rule="evenodd" fill="url(#linearGradient3497)"/>
  <path id="path10282" style="color:#000000" fill-rule="evenodd" fill="url(#linearGradient3494)" d="m140.83 224.83c27.46 7.8 66.05 18.74 74.83 26.57-0.19 11.1-0.23 22.44 0 33.9-3.57 3.49-6.9 6.93-11.86 10.78-19.57 0.23-36.95-1.74-53.28-4.75-3.37-5.54-3.84-12.36-4-19.32-5.25-15.49-5.36-31.34-5.69-47.18z"/>
  <g id="g5950" transform="matrix(.82132 0 0 .82132 164.48 -230.33)" fill-rule="evenodd">
    <path id="rect8261" style="color:#000000" d="m69.628 438.31l6.677 3.28c-28.955 26.32-46.472 55.55-60.982 85.48l-34.554-4.8c24.417-33.12 51.698-62.98 88.859-83.96z"/>
    <path id="path7087" style="color:#000000" fill="url(#linearGradient3150)" d="m69.628 438.31l6.677 3.28c-28.955 26.32-46.472 55.55-60.982 85.48l-34.554-4.8c24.417-33.12 51.698-62.98 88.859-83.96z"/>
    <path id="rect4940" style="color:#000000" fill="url(#linearGradient3152)" d="m72.781 439.88c-9.611 5.14-18.652 10.75-27.187 16.81-19.448 16.71-38.619 33.61-51.188 54.59l27.032 3.6c13.376-25.66 29.864-50.55 54.874-73.29l-3.531-1.71z"/>
    <path id="path5926" style="color:#000000" fill="url(#linearGradient3154)" d="m5.5116 500.13c-3.1224 5.41-1.0873 9.53 5.1564 9.53 0.731 0 1.471-0.08 2.25-0.19-0.461-0.32-0.875-0.7-1.25-1.15-1.491-1.79-2.1403-4.52-1.563-8.19h-4.5934zm5.0004 0l0.625 0.09c-0.563 3.5 0.113 5.9 1.375 7.41 0.57 0.68 1.266 1.18 2.062 1.53 1.431-0.32 2.902-0.77 4.375-1.37-0.242-0.17-0.47-0.35-0.687-0.54-1.657-1.43-2.449-3.71-1.782-6.71l0.969 0.21c-0.61 2.75 0.077 4.55 1.469 5.75 0.348 0.31 0.748 0.56 1.187 0.79 3.795-1.73 7.5-4.24 10.282-7.16h-19.875z"/>
    <path id="path6910" style="color:#000000" fill="url(#linearGradient3156)" d="m67.71 442.5c-1.172 0.08-2.478-0.04-3.521 0.57-4.951 1.33-6.445 3.59-8.811 5.7-2.342 3.32-2.84 7.87-1.216 11.6 0.397 0.95 0.91 1.84 1.518 2.65 0.588-1 2.071-1.9 2.103-2.94-1.654-2.92-1.48-6.75 0.394-9.52 2.421-3.73 7.136-5.5 11.41-4.8 0.962 0.13 1.959 0.77 2.567-0.33 0.424-0.56 1.686-1.27 1.586-1.73-1.907-0.79-3.968-1.21-6.03-1.2z"/>
    <path id="path6917" style="color:#000000" fill="url(#linearGradient3158)" d="m67.71 445.62c-4.186-0.05-8.48 2.3-10.25 6.25-1.241 2.67-1.051 5.95 0.472 8.47 4.251-4.93 8.733-9.66 13.431-14.16-1.18-0.38-2.417-0.56-3.653-0.56z"/>
    <path id="path7011" style="color:#000000" fill="url(#linearGradient3160)" d="m60.156 448.56c-9.913 3.1-17.626 7.91-22.25 14.69-8.461 4.7-13.424 12.98-12.875 25.44 3.265-12.97 4.636-16.52 11.344-22.85-2.501 4.7-3.694 10.21-3.313 16.6 6.653-19.5 8.648-22.06 27.094-33.88zm-32.25 23c-5.585 3.78-8.957 11.32-8.625 23.38 2.119-13.46 2.752-15.22 8.625-23.38z"/>
  </g>
  <path id="rect4924" style="color:#000000" stroke-width=".82132" stroke="url(#linearGradient3483)" d="m306.77 185.45c4.77-0.72 9.29-0.52 13.35 1.24-4.97 6.63-11.44 9.31-16.84 10.67 0.06-3.4-0.67-7.22 3.49-11.91z"/>
  <path id="path7903" opacity=".45" style="color:#000000" d="m643.51 170.81c-0.5 1.06-1 2.13-1.51 3.18l-103.54 31.34c-7.44 8.12-14.72 16.18-21.84 23.95 13.71 24.98 24.21 50.47 33.67 76.12 24.57-1.02 48.79-3.4 72.74-6.9-0.52-5.01-0.84-10.17-0.97-15.43-0.77-31.36 8.42-79.88 21.45-112.26z" fill-rule="evenodd" fill="url(#radialGradient3480)"/>
  <path id="path7917" opacity=".5" style="color:#000000" d="m538.36 205.81l105.69-32.82 7.84 2.62" stroke="url(#linearGradient3477)" stroke-linecap="round" stroke-width=".82132" fill="none"/>
  <path id="path10102" d="m659.54 110.45c5.57-19.926 12.8-66.672 30.89-66.611 21.51 0.073 39.37 15.887 70.31 39.508-9.96 0.131-36.73-9.042-44.71 5.34-4.43 7.968-1.93 19.583-1.57 28.483-7.68 0.91-22.19 3.9-25.05 2.21-3.76-2.23-21.98-8.85-29.87-8.93z"/>
  <path id="path10104" opacity=".6805" style="color:#000000" d="m673.24 114.5c-50.92 2.87-95.11 46.95-134.62 90.07l103.54-31.34c9.03-18.59 16.38-35.53 36.59-39.2l-0.02-17.73c-1.76-0.77-3.59-1.36-5.49-1.8z" fill-rule="evenodd" fill="url(#radialGradient3473)"/>
  <g id="g9895" transform="matrix(.82132 0 0 .82132 164.63 -230.21)" fill-rule="evenodd">
    <path id="path10109" style="color:#000000" fill="#980101" d="m548.01 501.88l35-11.31-3.89 15.2-18.38 3.18-12.73-7.07z"/>
    <path id="path9883" style="color:#000000" fill="url(#linearGradient3170)" d="m553 502.38c5.13 4.06 10.76 5.21 16.96 2.94 8.03 1.11 9.08-5.35 10.2-11.73-9.06 2.93-18.11 5.86-27.16 8.79z"/>
  </g>
  <path id="rect9899" opacity=".82573" style="color:#000000" d="m734.32 80.583c-7.7 0.027-14.8 1.818-18.3 8.11-0.22 0.411-0.42 0.829-0.61 1.258-0.03 0.06-0.05 0.12-0.08 0.18-0.17 0.398-0.34 0.794-0.49 1.206-0.01 0.051-0.03 0.103-0.05 0.154-0.16 0.485-0.3 0.961-0.43 1.463s-0.24 1.023-0.34 1.54c23.04 0.118 50.65-1.476 63.63 5.467-0.48-2.603-1.65-5.67-2.9-8.47-1.57-3.496-5.45-5.184-9.06-6.647-2.8-0.719-4.38-1.411-5.03-1.489h-0.1c-0.19 0-0.39-0.016-0.59-0.026-0.06-0.001-0.1 0.002-0.16 0-0.02-0.001-0.03 0.001-0.05 0-5.83-0.222-16.08-2.778-25.44-2.746z" fill-rule="evenodd" fill="url(#linearGradient3467)"/>
  <path id="path10113" fill="#fff" d="m726.78 96c27.03-0.971 11.12 11.94 48.77 7.44-17.92 13.6-56.73-9.67-55.66 20.47-3.4-33.377-6.63-27.419 6.89-27.91zm-8.19-8.862c5.94-3.915 13.91-3.543 20.7-2.839 4.37 0.453 12.59 0.895 17.01 1.125-7.75 1.584-17.19 0.779-22.93 0.422-5.15-0.32-9.91-0.518-14.78 1.292z"/>
  <path id="rect9941" style="color:#000000" fill-rule="evenodd" fill="url(#radialGradient3463)" d="m774.75 91.491c1.25 2.8 2.42 5.867 2.9 8.47-0.03-0.018-0.07-0.034-0.1-0.051 0.02 0.25 0.02 0.51 0.02 0.77-1.26 13.45-26.18 10.58-51.33 12.73l-0.64 17.86-16.45 5.21 1.74 3.21c80.49-20.79 98.02-42.021 120.63-43.117-1.39-0.779-2.49-1.205-3.15-1.309-10.3-1.617-42.2-3.222-52.18-3.696l-1.44-0.077z"/>
  <path id="rect9958" style="color:#000000" fill-rule="evenodd" fill="url(#radialGradient3460)" d="m831.52 96.581c-22.61 1.097-40.14 22.329-120.63 43.119l-1.75-3.21c-6.92-4.8-12.81-7.26-15.17-8.11-2.67 0.75-5.58 7.57-8.83 6.78 0.7 0.36 1.37 0.76 2.03 1.18 28.68 18.18 24.03 89.66 21.05 134.52l118.37-41.2c2.97-22.24 7.66-55.55 10.37-65.45 0.81-2.95 6.16-22.09 11.65-24.41 8.51-3.58 12.95-1.64 11.45 47.61l2.85 2.42c-2.34-22.08 5.8-25.84-7.37-61.42-7.05-19.05-18.18-28.574-24.02-31.829zm1.95 33.439c-3.75 1.56-8.57 3.95-12.5 4.8-0.71 27.42-5.48 48.85-15.17 69.71 10.17-26.89 10.05-46.97 12.71-68.83l-0.11 0.05c0.01-0.1 0.02-0.19 0.03-0.28l-20.61 7.39c-1.02 10.74-3.58 21.5-5.65 31.9 1.51-10.23 4.33-21.08 4.11-31.31l-1.15 0.43c-0.87 12.63-3.61 24.3-6.06 36.04 1.87-11.65 4.97-23.64 4.75-35.47-1.03 0.14-2.05 0.29-3.06 0.46-0.13 0.02-0.2-2.15-0.41-2.1-0.18 0.03-0.5 2.29-0.61 2.31-0.71 0.12-1.13 0.17-1.83 0.3-0.18 0.04-0.3-1.44-0.48-1.41-0.22 0.05-0.51 1.63-0.72 1.67-9.19 1.86-17.81 4.44-27.18 5.54 8.97-2.94 17.96-5.45 27.2-8.59-0.27-0.27-1.34-6.93-0.67-7.32-0.15 0.74 1.55 6.86 2.67 6.7 14.67-4.55 29.46-8.81 44.74-11.99zm-149.35 4.65c0.31 0.23 0.62 0.37 0.92 0.46-0.3-0.16-0.61-0.31-0.92-0.46z"/>
  <g id="g10143" transform="matrix(.82132 0 0 .82132 164.48 -230.33)" fill-rule="evenodd">
    <path id="rect10129" style="color:#000000" fill="url(#radialGradient3178)" d="m796.69 444.9l-22.14 8.43c-2.77 32.85-9.02 60.04-19.14 80.05-9.33 20.12-24.07 33.16-42.1 45.15l83.31-32.34-21.68 3-0.35-4.91c17.61-37.28 19.93-69.09 22.1-99.38z"/>
    <path id="rect9989" style="color:#000000" d="m775.14 454.09l21.18-8.44c-3.76 30.99-2.92 59.01-22.63 100.63l-18.7-12.1c10.34-20.1 17.34-46.8 20.15-80.09z"/>
  </g>
  <path id="rect11822" style="color:#000000" fill-rule="evenodd" fill="url(#radialGradient3454)" d="m776.11 94.785c0.68 1.789 1.24 3.577 1.54 5.184-0.04-0.018-0.07-0.033-0.11-0.051 0.03 0.252 0.02 0.512 0.03 0.772-0.26 2.76-1.52 4.82-3.57 6.39l8.57 2.62c6.53-4.15 13.32-8.06 21.31-11.04-8.66-1.652-18.02-2.882-27.77-3.875z"/>
  <path id="path11834" style="color:#000000" fill-rule="evenodd" d="m776.77 95.026c0.65 1.704 1.18 3.406 1.47 4.937-0.04-0.017-0.07-0.032-0.1-0.049 0.02 0.246 0.02 0.486 0.02 0.736-0.06 0.69-0.19 1.35-0.39 1.95 4.22 0.58 8.46 1.2 12.76 2.06 3.94-2.21 8.11-4.24 12.68-5.943-8.24-1.574-17.15-2.745-26.44-3.691z"/>
  <path id="rect11845" style="color:#000000" fill-rule="evenodd" fill="url(#radialGradient3420)" d="m826.33 230.57c-41.91 15.28-84.64 28.35-126.33 44.25-0.77 4.87-1.66 9.69-2.66 14.38 42.01-13.26 82.97-29.72 126.38-38.81 0 0 1.14-8.78 2.61-19.82z"/>
  <path id="path11877" style="color:#000000" fill-rule="evenodd" fill="#fff" d="m796.66 244.28c-0.57 0.01-1.25 0.18-2.05 0.51-12.61 5.18-26.7 6.94-37.93 15.09-6.24 4.53-13.96 7.02-19.64 12.22-9.63 8.83-30.04 11.61-39.68 16.92-0.01 0.05-0.01 0.12-0.02 0.18 18.16-5.73 36.13-12.05 54.18-18.13 2.83-1.7 5.64-3.47 8.18-5.56 4.02-3.32 11.62-8.16 19.13-10.48 2.59-0.8 8.37-3.22 10.52-0.89 1.05 1.14 1.75 2.7 1.98 4.36 9.57-2.74 19.22-5.25 29-7.39-1.49-0.55-3.11-0.8-4.83-0.65-4.95 0.46-15.33 7.14-15.63-0.79-0.1-2.83-0.7-5.45-3.21-5.39z"/>
  <path id="path11882" style="color:#000000" fill-rule="evenodd" fill="url(#linearGradient3446)" d="m786.5 253.16c-2.58 0.02-5.89 1.32-7.67 1.87-7.51 2.32-15.11 7.16-19.13 10.48-2.55 2.1-5.37 3.85-8.21 5.56 13.2-4.44 26.44-8.74 39.84-12.57-0.23-1.66-0.93-3.22-1.98-4.36-0.67-0.73-1.68-0.99-2.85-0.98z"/>
  <path id="rect5068" style="color:#000000" fill-rule="evenodd" fill="url(#radialGradient3443)" d="m725.95 121.27l-0.36 10.01-0.38 0.13c1.42 1.66 3.76 2.93 5.72 6.11 4.2 6.79 10.23 13.09 12.12 10.19 2.5-3.85-2.49-15.84-4.6-17.84-4.32-4.09-9.64-7.3-12.5-8.6z"/>
  <path id="rect6054" style="color:#000000" fill-rule="evenodd" fill="url(#radialGradient3440)" d="m714.35 117.19c-4.01 0.48-9.81 1.49-14.88 2.13 5.35 3.36 11.53 6.56 17.89 10.5-3.59-4.85-2.38-8.52-3.01-12.63z"/>
  <path id="rect6062" style="color:#000000" fill-rule="evenodd" fill="url(#radialGradient3437)" d="m675.75 114.03l-0.44 0.06c18.26 7.88 21.65 20.25 45.72 18.55-1.45-1.07-2.74-2.16-3.96-3.23 0.1 0.14 0.18 0.27 0.29 0.41-6.36-3.94-12.54-7.14-17.89-10.5-4.67 0.59-8.7 0.86-10.06 0.05-1.91-1.13-7.54-3.37-13.66-5.34z"/>
  <path id="path6158" opacity=".5" style="color:#000000" d="m691.36 120.06c5.98 4.41 14.41 10.71 19.3 19.5 0.84 27.03 1.32 54.15 0 81.72" stroke="url(#linearGradient3414)" stroke-linecap="round" stroke-width=".82132" fill="none"/>
  <path id="path6073" style="color:#000000" fill-rule="evenodd" fill="#eee" d="m685.3 121.13c4.69 2.98 9.7 6.81 14.12 9.41-0.33-3.93-6.04-5.81-9.1-8.01-2.12-1.8-4.73-3.12-7.25-3.48 0.74 0.69 1.49 1.39 2.23 2.08z"/>
  <path id="path6088" style="color:#000000" fill-rule="evenodd" fill="url(#radialGradient3430)" d="m678.96 134.52c-0.28 0-0.56 0.01-0.85 0.02-1.12 0.05-2.24 0.21-3.39 0.46-0.01 0.01-0.03 0-0.05 0-17.17 5.1-24.12 20.94-32.52 38.22l-0.59 0.18c-2.46 7.56-3.98 15.9-4.21 24.69-0.2 7.86 0.66 15.42 2.31 22.41 7.67-38.17 19.65-73.73 36.96-74.41 19.21-0.75 28.08 38.21 27.36 82.85 3.17-9.6 5.14-20.72 5.45-32.52 0.03-1.38 0.03-2.74 0.02-4.1-2.03-23.83-7.54-44.63-20.04-54.39-3.25-2.19-6.76-3.41-10.45-3.41z"/>
  <path id="path6111" opacity=".60996" style="color:#000000" d="m680.4 145.94c-0.5 0.01-0.99 0.07-1.49 0.15-0.11 0.02-0.22 0.06-0.34 0.08 13.57 1.44 21.57 23.61 24.34 53.08 1.83 10.78 2.97 25.43 2.97 41.58v1.13c0.99-7.34 1.53-15.07 1.57-22.87 0.19-41.92-11.64-73.66-27.05-73.15z" fill-rule="evenodd" fill="#fff"/>
  <path id="path6128" style="color:#000000" fill-rule="evenodd" fill="url(#radialGradient3426)" d="m708.66 244.88c-1.84 11.48-3.38 23.43-8.55 29.9 2.09-0.79 4.19-1.57 6.29-2.36 1.1-8.14 2.93-17.58 2.26-27.54z"/>
  <path id="path6132" style="color:#000000" fill-rule="evenodd" fill="url(#radialGradient3423)" d="m710.4 212.11c0.33 20.49-1.04 41.57-2.18 58.75l47.35-16.48c-4.8-21.92-22.75-38.92-45.17-42.27z"/>
  <path id="path6149" opacity=".7" style="color:#000000" d="m699.98 274.57c43.52-14.16 84.52-31.38 126.07-42.92" fill-rule="evenodd" stroke="#986601" stroke-linecap="round" stroke-width=".82132" fill="url(#radialGradient3420)"/>
  <path id="path6176" style="color:#000000" fill-rule="evenodd" fill="url(#radialGradient3417)" d="m693.97 128.38c-2.17 0.61-4.49 5.24-7.03 6.52-0.39 0.2-0.78 0.3-1.18 0.31-0.2 0.01-0.41 0-0.62-0.05 0.7 0.36 1.37 0.76 2.03 1.18 0.16 0.1 0.31 0.21 0.46 0.33 17.68 11.72 22.44 44.01 22.8 77.49 1.31-13.52 0.47-52.44 1.46-56.31 1.73-6.81 1.44-13.13-0.46-18.3-0.19 0.04-0.36 0.1-0.54 0.15l-1.75-3.21c-6.92-4.8-12.81-7.26-15.17-8.11zm-9.85 6.29c0.31 0.23 0.62 0.37 0.92 0.46-0.3-0.16-0.61-0.31-0.92-0.46z"/>
  <path id="path6178" opacity=".64315" style="color:#000000" d="m691.36 120.06c5.98 4.41 14.41 10.71 19.3 19.5 0.84 27.03 1.32 54.15 0 81.72" stroke="url(#linearGradient3414)" stroke-linecap="round" stroke-width=".82132" fill="none"/>
  <path id="path6237" opacity=".3" style="color:#000000" d="m774.34 106.42l15.87 6.04c4.11 7.92 7.93 16.49 10.53 25.94" stroke="#fdca01" stroke-width=".82132" fill="none"/>
  <path id="path4991" style="color:#000000" fill-rule="evenodd" fill="url(#radialGradient3410)" d="m852.39 127.15c-5.73 0-11.17 11.05-14.89 28 3.05-10.05 8.24-17.12 13.3-17.12 0.78 0 1.52 0.17 2.23 0.49 2.71 0.1 4.74 2.4 5.93 9.5 0.92 3.72 1.3 8.29 1.08 13.29 0.22 6.7 0.2 15.14-0.13 25.98l2.85 2.41c-2.35-22.08 5.8-25.84-7.37-61.42-0.01-0.02-0.02-0.03-0.03-0.05-0.96-0.69-1.94-1.08-2.97-1.08zm-17.51 42.99c-0.38 2.81-0.71 5.68-1 8.65 0.32-1.87 0.62-3.61 0.93-5.26-0.01-1.1 0.01-2.24 0.07-3.39z"/>
  <path id="path5004" opacity=".7" style="color:#000000" d="m854.21 138.11c-0.37 0-0.76 0.09-1.16 0.23-0.15 0.06-0.3 0.12-0.46 0.21 5.76-0.25 8.55 8.24 7.32 48.74l0.38 0.33c0.56-4.6 0.87-9.79 0.87-15.3 0.67-18.38-1.43-34.19-6.95-34.21z" fill-rule="evenodd" fill="#eee"/>
  <g id="g8050" transform="matrix(.82132 0 0 .82132 164.48 -230.33)" fill-rule="evenodd">
    <g id="g7042">
      <path id="rect6661" style="color:#000000" d="m503 437.86l56-5c-40.96 29.41-79.65 59.96-117 101l-80-0.5c41.87-33.7 84.73-67.04 141-95.5z"/>
      <path id="rect6982" style="color:#000000" fill="url(#linearGradient3208)" d="m559 432.88l-56 5c-6.35 3.21-12.51 6.48-18.53 9.81l10.53-3.31 42.91 3.93c6.96-5.21 13.99-10.34 21.09-15.43z"/>
      <path id="path4929" style="color:#000000" fill="url(#linearGradient3210)" d="m523.12 441.41c-0.49-0.01-0.98 0.01-1.46 0.03-14.87 0.64-20.32 7.22-28.28 12.53-1.57 3.95 2.63 14.24 9.56 21.87 12.18-10.15 24.55-19.76 37.12-29.12-5.34-3.16-11.34-5.21-16.94-5.31z"/>
      <path id="path7557" style="color:#000000" fill="url(#linearGradient3212)" d="m500.15 466.75c-24.68 0.28-44.35 16.44-43.37 28.94 0.38 4.84 4.05 9.13 9.97 12.62 15.61-15.16 31.49-28.92 47.69-41.87-4.73-1.3-9.78 0.25-14.29 0.31z"/>
      <path id="path5857" style="color:#000000" fill="url(#linearGradient3214)" d="m509.5 467.09c-3.04 0.1-6.21 0.78-9.34 0.82-3.03 0.03-5.95 0.32-8.78 0.81 4.05 1 7.52 3.49 10.06 6.87 3.39-2.83 6.8-5.61 10.22-8.37-0.29-0.02-0.56-0.12-0.85-0.13-0.43-0.01-0.88-0.01-1.31 0z"/>
      <path id="path9369" style="color:#000000" d="m487.38 469.34c-7.5 0-13.85 5.3-16.19 12.69 2.37-5.33 7.91-9.06 14.37-9.06 5.4 0 10.16 2.6 12.97 6.56 0.92-0.77 1.83-1.54 2.75-2.31-3.11-4.77-8.18-7.88-13.9-7.88z"/>
      <path id="path8456" style="color:#000000" fill="#666" d="m470.5 491.62c0.57 3.51 2.03 6.67 4.09 9.22 0.47-0.43 0.94-0.87 1.41-1.31-2.65-1.97-4.61-4.72-5.5-7.91z"/>
      <path id="path10256" style="color:#000000" fill="#1a1a1a" d="m483.97 474.66c-6.22 0-11.28 5.01-11.28 11.18 0 4.66 2.89 8.63 6.97 10.32 5.01-4.59 10.05-9.05 15.12-13.41-1.35-4.67-5.67-8.09-10.81-8.09z"/>
      <path id="path4879" style="color:#000000" fill="url(#linearGradient3216)" d="m485.56 474.12c-6.01 0-11.13 3.48-13.31 8.38-0.28 0.51-0.89 0.74-1.43 0.53-0.55-0.2-0.85-0.78-0.73-1.34 0.82-2.56 2.19-4.77 3.82-6.75-1.52 0.85-3.05 1.7-4.38 2.65-7.68 5.5-12.03 12.4-11.59 18 0.32 4.12 3.43 7.93 8.68 11.22 9.97-9.65 20.06-18.7 30.26-27.37-2.65-3.18-6.69-5.32-11.32-5.32z"/>
      <path id="path4932" style="color:#000000" fill="#eee" d="m486.19 473.16c-4.25-0.01-8.42 2.15-11.22 5.78 3.2-3.31 8.31-4.56 13.09-2.82 3.25 1.19 5.71 3.53 7.06 6.35 0.79-0.67 1.56-1.36 2.35-2.03-1.45-2.97-3.87-5.34-7.06-6.5-1.39-0.51-2.81-0.78-4.22-0.78z"/>
      <path id="path4937" style="color:#000000" fill="#eee" d="m474.03 480.59c-2.63 3.41-3.61 7.74-2.59 11.6 0.34 1.28 0.89 2.51 1.68 3.65 0.92 1.33 2.08 2.4 3.38 3.22 0.76-0.71 1.52-1.42 2.28-2.12-1.62-0.87-3.08-2.12-4.22-3.75-2.72-3.94-2.77-8.9-0.53-12.6z"/>
      <path id="path4962" style="color:#000000" fill="url(#linearGradient3218)" d="m523.09 443c-0.43-0.01-0.89 0.01-1.37 0.03-14.04 0.61-19.07 6.46-26.88 11.81-0.34 1.24 0.03 4.4 1.6 8.07 0.23 0.53 0.48 1.07 0.75 1.62l30.34-20.97c-1.5-0.32-2.99-0.53-4.44-0.56z"/>
      <path id="path4981" style="color:#000000" fill="url(#linearGradient3220)" d="m524.59 443.69c-6.38 0-11.43 5.82-11.43 12.75 0 3.31 1.18 6.31 3.06 8.59 3.32-2.64 6.65-5.25 10-7.84l0.06-5.6 5.53-2.21c0.44-0.18 0.78-0.57 0.88-1.04 0.1-0.46-0.05-0.94-0.38-1.28-2-2.05-4.73-3.37-7.72-3.37z"/>
      <path id="path4947" style="color:#000000" fill="#980101" d="m524.59 445.12c-5.51 0-10 5.07-10 11.32 0 2.99 1.05 5.69 2.72 7.72 2.49-1.97 4.97-3.91 7.47-5.85l0.06-7.69 6.44-2.56c-1.77-1.81-4.11-2.94-6.69-2.94z"/>
      <path id="path5974" style="color:#000000" fill="url(#radialGradient3222)" d="m482.03 477.68c-3.71 1.1-6.75 4.8-6.77 8.21-0.01 2.55 1.66 4.27 4.06 4.5 0.29 0.03 0.63-0.16 0.82-0.45s0.18-0.61-0.03-0.77c-0.8-0.62-1.27-1.6-1.27-2.84 0.02-2.73 2.43-5.66 5.4-6.54 0.76-0.23 1.48-0.31 2.13-0.24 0.29 0.03 0.63-0.16 0.82-0.45s0.17-0.61-0.03-0.77c-1.23-0.97-3.08-1.27-5.13-0.65z"/>
      <path id="path5977" style="color:#000000" fill="url(#radialGradient3224)" d="m523.11 446.78c-3.33 0.81-6.26 4.05-6.53 7.22-0.2 2.36 1.13 4.06 3.22 4.41 0.25 0.05 0.56-0.1 0.75-0.36s0.2-0.56 0.03-0.72c-0.65-0.63-0.99-1.57-0.9-2.71 0.22-2.53 2.54-5.1 5.21-5.75 0.68-0.16 1.32-0.19 1.88-0.09 0.25 0.05 0.56-0.1 0.75-0.36s0.2-0.56 0.03-0.72c-1-0.98-2.6-1.36-4.44-0.92z"/>
      <path id="rect7030" style="color:#000000" fill="#fff" d="m525.34 441.5c0.07 0.02 0.21 0.07 0.28 0.09 4.86 0.57 9.89 2.43 14.44 5.13l3.03-2.25c-2.54-1.22-12.44-3.2-17.75-2.97z"/>
    </g>
    <path id="path7061" style="color:#000000" d="m399.52 516.73l59.39-2.83" stroke="url(#radialGradient3226)" stroke-linecap="round" fill="#fff"/>
  </g>
  <path id="path14244" opacity=".6" style="color:#000000" d="m449.42 103.23c-10.96 0.84-21.94 1.6-32.9 2.55 0.1 3.26 6.24 0.34 8.73 0.91 5.75-0.43 11.5-0.87 17.24-1.31-1.31 1.25-5.49 3.6-5.03 4.16 24.93-2.26 49.93 0.33 74.8 2.11 1.38-3.14-5.4-1.39-7.36-2.19-20.85-1.56-41.8-3.23-62.71-1.82 2.7-3.2 6.85-2.76 10.61-2.72 22.37 0.6 44.75 1.05 67.13 1.59 4.86 2.17 9.64 4.51 14.54 6.57 1.83-2.74-5.09-3.23-6.78-4.85-3.97-1.95-7.97-4.05-12.53-3.47-21.91-0.51-43.82-1.03-65.74-1.53z" fill-rule="evenodd" fill="url(#linearGradient3386)"/>
  <path id="path14262" opacity=".6" style="color:#000000" d="m332.46 104.69c-0.25 0.9 4.5 0.29 6.14 0.74 3.97 0.07 9.67-2.33 9.28 4.64 0.33 2.94-0.42 7.06 3.81 5.97 9.67 0.44 19.34 1.24 29.02 1.41 5.82-0.07 11.64-0.12 17.46-0.16-4.78-1.21-10.01-0.63-14.97-1.18-7.8-1.8-15.78-3.26-23.65-4.93-2.09 0.14-6.43-2.6-7.04-0.11-6.56 4.43 13.08 2.35 19.36 4.41-7.32-0.39-14.64-0.79-21.95-1.19-0.89-2.84 0.53-8.17-1.91-9.33-5.18-0.07-10.37-0.19-15.55-0.27zm-2.18 3.47c-11.22 0.1-22.45 0.21-33.67 0.3-4.41 2.05 2.45 1.71 4.23 1.59 9.93-0.11 19.85-0.1 29.78-0.33 0.82-0.27 0.52-1.64-0.34-1.56z" fill-rule="evenodd" fill="url(#linearGradient3383)"/>
  <path id="path15309" opacity=".8" style="color:#000000" d="m598.37 91.628c-4.16 0.09-8.59 0.541-13.17 1.386-15.62 2.877-29.36 9.636-37.24 17.476 26.33-2.33 51.69-2.39 81.54-2.31v-0.18c0-10.372-13.11-16.763-31.13-16.372z" fill-rule="evenodd" fill="url(#linearGradient3380)"/>
  <metadata>
    <rdf:RDF>
      <cc:Work>
        <dc:format>image/svg+xml</dc:format>
        <dc:type rdf:resource="http://purl.org/dc/dcmitype/StillImage"/>
        <cc:license rdf:resource="http://creativecommons.org/licenses/publicdomain/"/>
        <dc:publisher>
          <cc:Agent rdf:about="http://openclipart.org/">
            <dc:title>Openclipart</dc:title>
          </cc:Agent>
        </dc:publisher>
        <dc:title>Red Lamborghini</dc:title>
        <dc:date>2007-01-30T20:24:33</dc:date>
        <dc:description>a simple colour change remix of Lamborghini Gallardo by Micha? Pecyna.</dc:description>
        <dc:source>http://openclipart.org/detail/2987/red-lamborghini-by-ryanlerch</dc:source>
        <dc:creator>
          <cc:Agent>
            <dc:title>ryanlerch</dc:title>
          </cc:Agent>
        </dc:creator>
        <dc:subject>
          <rdf:Bag>
            <rdf:li>car</rdf:li>
            <rdf:li>clip art</rdf:li>
            <rdf:li>clipart</rdf:li>
            <rdf:li>color</rdf:li>
            <rdf:li>lamborghini</rdf:li>
            <rdf:li>photorealistic</rdf:li>
            <rdf:li>red</rdf:li>
            <rdf:li>remix</rdf:li>
            <rdf:li>sports car</rdf:li>
            <rdf:li>transport</rdf:li>
            <rdf:li>transportation</rdf:li>
            <rdf:li>vehicle</rdf:li>
            <rdf:li>wheel</rdf:li>
          </rdf:Bag>
        </dc:subject>
      </cc:Work>
      <cc:License rdf:about="http://creativecommons.org/licenses/publicdomain/">
        <cc:permits rdf:resource="http://creativecommons.org/ns#Reproduction"/>
        <cc:permits rdf:resource="http://creativecommons.org/ns#Distribution"/>
        <cc:permits rdf:resource="http://creativecommons.org/ns#DerivativeWorks"/>
      </cc:License>
    </rdf:RDF>
  </metadata>
</svg>
